<svg width="16" height="16" viewBox="0 0 16 16" fill="none" xmlns="http://www.w3.org/2000/svg">
<path d="M15.3599 7.99626C15.3599 8.17299 15.2166 8.31626 15.0399 8.31626H2.37244L6.3062 12.25C6.38939 12.3304 6.42275 12.4493 6.39346 12.5612C6.36418 12.6731 6.2768 12.7605 6.16492 12.7898C6.05304 12.8191 5.93406 12.7857 5.85372 12.7025L1.37372 8.2225C1.2488 8.09754 1.2488 7.89498 1.37372 7.77002L5.85372 3.29002C5.97928 3.16875 6.17887 3.17049 6.3023 3.29392C6.42574 3.41736 6.42747 3.61694 6.3062 3.7425L2.37244 7.67626H15.04C15.2167 7.6763 15.3599 7.81956 15.3599 7.99626Z" fill="#232323"/>
</svg>
