<svg width="20" height="18" viewBox="0 0 20 18" fill="none" xmlns="http://www.w3.org/2000/svg">
<path fill-rule="evenodd" clip-rule="evenodd" d="M18.1855 14.381L19.8981 17.243C19.9908 17.397 19.9928 17.59 19.905 17.746C19.8164 17.903 19.6499 18 19.4704 18H0.529624C0.350184 18 0.183736 17.903 0.0949975 17.746C0.00724046 17.59 0.0092498 17.397 0.10196 17.243L1.81462 14.381C2.60416 13.06 3.02187 11.548 3.02187 10.007V7.49998C3.02187 3.641 6.15308 0.5 10 0.5C13.847 0.5 16.9782 3.641 16.9782 7.49998V10.007C16.9782 11.548 17.3959 13.06 18.1855 14.381ZM2.66897 14.895L1.4099 17H18.5902L17.3301 14.895C16.4479 13.419 15.9814 11.729 15.9814 10.007V7.49998C15.9814 4.19098 13.2987 1.49998 10 1.49998C6.70135 1.49998 4.01874 4.19098 4.01874 7.49998V10.007C4.01874 11.729 3.55219 13.419 2.66897 14.895Z" fill="white"/>
</svg>
