<svg width="16" height="16" viewBox="0 0 16 16" fill="none" xmlns="http://www.w3.org/2000/svg">
<g clip-path="url(#clip0_348_34612)">
<rect x="3.8125" y="4.71875" width="8.625" height="6.9375" fill="white"/>
<path d="M15.125 7.0912L14.687 6.6532C14.507 6.4732 14.3985 6.0692 14.4645 5.8232L14.6245 5.2247C14.7135 4.8942 14.6675 4.5477 14.495 4.2502C14.323 3.9522 14.0465 3.7397 13.716 3.6512L13.117 3.4907C12.871 3.4247 12.5755 3.1292 12.509 2.8832L12.349 2.2847C12.17 1.6152 11.447 1.1937 10.775 1.3757L10.177 1.5357C9.9465 1.5967 9.5185 1.4847 9.347 1.3137L8.9085 0.874695C8.425 0.392195 7.576 0.391695 7.0915 0.875195L6.653 1.3137C6.4815 1.4862 6.052 1.5977 5.823 1.5362L5.2245 1.3757C4.552 1.1967 3.8295 1.6162 3.65 2.2847L3.4905 2.8827C3.4245 3.1292 3.1285 3.4252 2.8825 3.4907L2.2845 3.6507C1.9535 3.7397 1.6765 3.9527 1.5045 4.2507C1.3325 4.5487 1.287 4.8942 1.376 5.2237L1.536 5.8227C1.602 6.0692 1.4945 6.4727 1.3135 6.6527L0.876 7.0907C0.6335 7.3337 0.5 7.6562 0.5 8.0002C0.5 8.3442 0.633 8.6667 0.875 8.9087L1.3125 9.3462C1.4925 9.5267 1.601 9.9312 1.5355 10.1772L1.3755 10.7757C1.287 11.1062 1.333 11.4527 1.505 11.7502C1.677 12.0482 1.954 12.2607 2.2845 12.3487L2.882 12.5087C3.129 12.5752 3.4245 12.8712 3.491 13.1167L3.651 13.7152C3.83 14.3832 4.5525 14.8027 5.225 14.6237L5.823 14.4637C6.054 14.4022 6.4815 14.5142 6.6535 14.6857L7.0915 15.1237C7.3335 15.3667 7.6565 15.5002 8.0005 15.5002C8.3445 15.5002 8.667 15.3667 8.909 15.1247L9.348 14.6867C9.5195 14.5142 9.9415 14.4012 10.1785 14.4647L10.7755 14.6242C10.8835 14.6532 10.995 14.6682 11.1065 14.6682H11.107C11.688 14.6682 12.1995 14.2767 12.3495 13.7152L12.509 13.1182C12.5755 12.8717 12.8715 12.5757 13.1175 12.5097L13.716 12.3497C14.4005 12.1652 14.808 11.4587 14.6235 10.7762L14.464 10.1777C14.398 9.9312 14.506 9.5272 14.686 9.3472L15.1245 8.9092C15.626 8.4067 15.6255 7.5917 15.125 7.0912ZM11.3535 6.3537L7.3535 10.3537C7.256 10.4512 7.128 10.5002 7 10.5002C6.872 10.5002 6.744 10.4512 6.6465 10.3537L4.6465 8.3537C4.451 8.1582 4.451 7.8422 4.6465 7.6467C4.842 7.4512 5.158 7.4512 5.3535 7.6467L7 9.2932L10.6465 5.6467C10.842 5.4512 11.158 5.4512 11.3535 5.6467C11.549 5.8422 11.549 6.1582 11.3535 6.3537Z" fill="#2983FF"/>
</g>
<defs>
<clipPath id="clip0_348_34612">
<rect width="16" height="16" fill="white"/>
</clipPath>
</defs>
</svg>
