<svg width="21" height="22" viewBox="0 0 21 22" fill="none" xmlns="http://www.w3.org/2000/svg">
<path d="M20.8449 10.8715C20.8449 9.99711 20.7739 9.359 20.6204 8.69727H10.6351V12.6441H16.4962C16.3781 13.6249 15.74 15.102 14.322 16.0946L14.3021 16.2267L17.4592 18.6725L17.678 18.6943C19.6868 16.8391 20.8449 14.1094 20.8449 10.8715Z" fill="#4285F4"/>
<path d="M10.6352 21.2705C13.5066 21.2705 15.9172 20.3251 17.678 18.6945L14.322 16.0947C13.424 16.721 12.2186 17.1582 10.6352 17.1582C7.82279 17.1582 5.4358 15.303 4.5849 12.7388L4.46018 12.7494L1.17733 15.29L1.1344 15.4093C2.88328 18.8835 6.47561 21.2705 10.6352 21.2705Z" fill="#34A853"/>
<path d="M4.5849 12.7388C4.36038 12.077 4.23044 11.368 4.23044 10.6354C4.23044 9.90267 4.36038 9.19368 4.57308 8.53195L4.56714 8.39101L1.24315 5.80957L1.13439 5.8613C0.413595 7.30298 0 8.92192 0 10.6354C0 12.3488 0.413595 13.9677 1.13439 15.4093L4.5849 12.7388Z" fill="#FBBC05"/>
<path d="M10.6352 4.11224C12.6322 4.11224 13.9793 4.97487 14.7474 5.69574L17.7489 2.76515C15.9055 1.05171 13.5066 0 10.6352 0C6.47561 0 2.88328 2.38699 1.1344 5.86112L4.57309 8.53176C5.4358 5.96751 7.82279 4.11224 10.6352 4.11224Z" fill="#EB4335"/>
</svg>
