<svg width="16" height="14" viewBox="0 0 16 14" fill="none" xmlns="http://www.w3.org/2000/svg">
<path d="M14.7307 1.36863C13.9025 0.486071 12.766 0 11.5304 0C10.6068 0 9.76099 0.28687 9.01636 0.852573C8.64062 1.13812 8.30017 1.48748 8 1.89523C7.69995 1.4876 7.35938 1.13812 6.98352 0.852573C6.23901 0.28687 5.39319 0 4.4696 0C3.23401 0 2.09741 0.486071 1.26917 1.36863C0.450806 2.24087 0 3.43248 0 4.72411C0 6.05352 0.504272 7.27044 1.58691 8.55392C2.55542 9.70199 3.94739 10.8675 5.55933 12.217C6.10974 12.6779 6.73364 13.2003 7.38147 13.7568C7.55261 13.9041 7.77222 13.9851 8 13.9851C8.22766 13.9851 8.44739 13.9041 8.61829 13.757C9.26611 13.2004 9.89038 12.6778 10.441 12.2167C12.0527 10.8673 13.4447 9.70199 14.4132 8.5538C15.4958 7.27044 16 6.05352 16 4.72399C16 3.43248 15.5492 2.24087 14.7307 1.36863Z" fill="white"/>
</svg>
