<svg width="16" height="16" viewBox="0 0 16 16" fill="none" xmlns="http://www.w3.org/2000/svg">
<path d="M12.5085 1.33333H11.3606V5.21824C11.3606 5.49118 11.0846 5.62614 10.8708 5.28344L10.1126 4.07035L9.35447 5.28344C9.13914 5.62462 8.86468 5.49118 8.86468 5.21824V1.33333H5.01616C4.08584 1.33583 3.33301 2.09071 3.33301 3.02103V12.9835C3.33551 13.912 4.08762 14.6642 5.01616 14.6667H12.51C12.7149 14.6663 12.9113 14.5845 13.0559 14.4392C13.2012 14.2947 13.283 14.0983 13.2833 13.8933V2.10819C13.2825 1.68057 12.9361 1.33416 12.5085 1.33333ZM12.6525 12.6651L5.34067 12.6742C5.1813 12.6852 5.05449 12.812 5.0435 12.9713C5.03133 13.1476 5.16439 13.3004 5.34067 13.3126H12.6525L12.651 13.9009C12.6511 13.936 12.6375 13.9697 12.6131 13.9949C12.5879 14.0193 12.5542 14.0329 12.5191 14.0328H5.01616C4.4404 14.0328 3.97367 13.5661 3.97367 12.9903C3.97367 12.4146 4.4404 11.9478 5.01616 11.9478H12.5191C12.5925 11.9487 12.6517 12.0079 12.6525 12.0813V12.6651Z" fill="#838383"/>
</svg>
