<svg width="107" height="87" viewBox="0 0 107 87" fill="none" xmlns="http://www.w3.org/2000/svg">
<path id="path24" fill-rule="evenodd" clip-rule="evenodd" d="M32.3004 24.8557L37.6013 21.7497L42.9003 18.6424L48.2005 15.5351L53.5007 12.4279L58.8021 15.5351L64.101 18.6424L69.4012 21.7497L74.7001 24.8557L80.0003 27.9642V34.1776L74.7001 37.2848L69.4012 40.3933L64.101 43.4982L58.8021 46.6067L53.5007 49.7139L48.2005 46.6067V40.3933L53.5007 37.2848L58.8021 34.1776L64.101 31.0703L58.8021 27.9642L53.5007 24.8557L48.2005 27.9642L42.9003 31.0703L37.6013 34.1776V40.3933V46.6067V52.8212L42.9003 55.9273L48.2005 59.0358L53.5007 62.1406L58.8021 59.0358L64.101 55.9273L69.4012 52.8212L74.7001 49.7139L80.0003 46.6067V52.8212V59.0358L74.7001 62.1406L69.4012 65.2491L64.101 68.3564L58.8021 71.4648L53.5007 74.5697L48.2005 71.4648L42.9003 68.3564L37.6013 65.2491L32.3004 62.1406L26.9999 59.0358V52.8212V46.6067V27.9642L32.3004 24.8557ZM95.9021 46.8874C94.7029 47.399 93.8618 48.6117 93.8618 50.0092C93.8618 51.4067 94.6859 52.594 95.8669 53.1165L95.8414 53.2077L94.4808 58.0186H97.2019H99.9218L98.5612 53.2077L98.5358 53.1165C99.7167 52.594 100.541 51.4067 100.541 50.0092C100.541 48.6117 99.6997 47.399 98.5006 46.8874V41.0131C98.5006 37.6725 96.8706 34.8034 94.0209 33.1349L75.8495 22.4812L53.5007 9.38013V6.33241L77.1494 20.1967L98.1959 32.5358H98.1984L101.102 34.2371L101.201 34.1776L106.5 31.0703L101.201 27.9642L95.9008 24.8557L90.6019 21.7497C87.0676 19.6778 83.5334 17.6083 80.0003 15.5351L74.7001 12.4279L69.4012 9.32182L64.101 6.21332L58.8021 3.10726L53.5007 0L48.2005 3.10726L42.9003 6.21332L37.6013 9.32182L32.3004 12.4279L26.9999 15.5351L21.7006 18.6424L16.4 21.7497L11.0994 24.8557L5.80054 27.9642L0.5 31.0703L5.80054 34.1776L11.0994 37.2848L16.4 40.3933V46.6067V52.8212V59.0358V65.2491L21.7006 68.3564L26.9999 71.4648L32.3004 74.5697L37.6013 77.6782L42.9003 80.7842L48.2005 83.8915L53.5007 87L58.8021 83.8915L64.101 80.7842L69.4012 77.6782L74.7001 74.5697L80.0003 71.4648C83.5334 69.3917 87.0676 67.3198 90.6019 65.2491V59.0358V52.8212V46.6067V40.3933L94.3121 38.2157C94.6483 38.0188 95.0355 38.0188 95.3729 38.2157C95.7079 38.4138 95.9008 38.7528 95.9008 39.1478L95.9021 46.8874ZM74.7001 24.8557L80.0003 27.9642L74.7001 24.8557Z" fill="white"/>
</svg>
