<svg width="20" height="21" viewBox="0 0 20 21" fill="none" xmlns="http://www.w3.org/2000/svg">
<path d="M0.899231 8.61328C0.899231 9.6875 1.10105 10.695 1.5047 11.6357C1.90835 12.5765 2.46824 13.405 3.18439 14.1211C3.90054 14.8372 4.72899 15.3971 5.66974 15.8008C6.61049 16.2044 7.61798 16.4062 8.6922 16.4062C9.53855 16.4062 10.3458 16.276 11.114 16.0156C11.8823 15.7552 12.5854 15.3971 13.2234 14.9414L18.0281 19.7558C18.1453 19.8665 18.2739 19.9496 18.4138 20.0049C18.5538 20.0602 18.702 20.0879 18.8582 20.0879C19.0796 20.0879 19.2749 20.0374 19.4441 19.9365C19.6134 19.8356 19.7452 19.6972 19.8396 19.5215C19.934 19.3457 19.9812 19.1504 19.9812 18.9355C19.9812 18.7793 19.9536 18.6328 19.8982 18.4961C19.8429 18.3594 19.7632 18.2389 19.659 18.1348L14.8836 13.3301C15.3849 12.679 15.7771 11.9531 16.0603 11.1523C16.3435 10.3516 16.4851 9.50521 16.4851 8.61328C16.4851 7.53906 16.2833 6.53158 15.8797 5.59082C15.4761 4.65007 14.9162 3.82162 14.2 3.10547C13.4839 2.38933 12.6554 1.82943 11.7146 1.42578C10.7739 1.02214 9.76642 0.820312 8.6922 0.820312C7.61798 0.820312 6.61049 1.02214 5.66974 1.42578C4.72899 1.82943 3.90054 2.38933 3.18439 3.10547C2.46824 3.82162 1.90835 4.65007 1.5047 5.59082C1.10105 6.53158 0.899231 7.53906 0.899231 8.61328ZM2.56915 8.61328C2.56915 7.76693 2.72703 6.97429 3.04278 6.23535C3.35854 5.49642 3.79799 4.84538 4.36114 4.28222C4.92429 3.71908 5.57534 3.27962 6.31427 2.96386C7.0532 2.64811 7.84585 2.49023 8.6922 2.49023C9.53855 2.49023 10.3312 2.64811 11.0701 2.96386C11.8091 3.27962 12.4585 3.71908 13.0183 4.28222C13.5783 4.84538 14.0177 5.49642 14.3367 6.23535C14.6557 6.97429 14.8152 7.76693 14.8152 8.61328C14.8152 9.45964 14.6557 10.2523 14.3367 10.9912C14.0177 11.7301 13.5783 12.3795 13.0183 12.9394C12.4585 13.4993 11.8091 13.9388 11.0701 14.2578C10.3312 14.5768 9.53855 14.7363 8.6922 14.7363C7.84585 14.7363 7.0532 14.5768 6.31427 14.2578C5.57534 13.9388 4.92429 13.4993 4.36114 12.9394C3.79799 12.3795 3.35854 11.7301 3.04278 10.9912C2.72703 10.2523 2.56915 9.45964 2.56915 8.61328Z" fill="black" fill-opacity="0.85"/>
</svg>
