<svg width="20" height="20" viewBox="0 0 20 20" fill="none" xmlns="http://www.w3.org/2000/svg">
<path fill-rule="evenodd" clip-rule="evenodd" d="M17.3388 6.35305L16.8201 5.45298C16.3813 4.69138 15.4088 4.42864 14.6462 4.86564V4.86564C14.2832 5.07949 13.85 5.14017 13.4422 5.03428C13.0344 4.92839 12.6854 4.66464 12.4723 4.30118C12.3352 4.07016 12.2615 3.80704 12.2587 3.53841V3.53841C12.2711 3.10773 12.1086 2.69038 11.8083 2.38143C11.508 2.07249 11.0954 1.89826 10.6645 1.89844H9.6195C9.19739 1.89843 8.79268 2.06664 8.49492 2.36583C8.19716 2.66502 8.0309 3.07053 8.03293 3.49264V3.49264C8.02042 4.36415 7.31032 5.06405 6.43872 5.06396C6.1701 5.06117 5.90697 4.98749 5.67595 4.85038V4.85038C4.9133 4.41339 3.94085 4.67612 3.50203 5.43772L2.94521 6.35305C2.50693 7.1137 2.76609 8.08555 3.52492 8.52697V8.52697C4.01817 8.81174 4.32203 9.33803 4.32203 9.90759C4.32203 10.4771 4.01817 11.0034 3.52492 11.2882V11.2882C2.76705 11.7267 2.50761 12.6961 2.94521 13.4545V13.4545L3.47152 14.3622C3.67712 14.7332 4.02209 15.007 4.43008 15.1229C4.83807 15.2389 5.27545 15.1875 5.64544 14.9801V14.9801C6.00915 14.7678 6.44258 14.7097 6.84937 14.8185C7.25616 14.9274 7.60262 15.1942 7.81172 15.5598C7.94883 15.7908 8.02251 16.0539 8.0253 16.3225V16.3225C8.0253 17.203 8.73905 17.9167 9.6195 17.9167H10.6645C11.542 17.9168 12.2545 17.2076 12.2587 16.3302V16.3302C12.2567 15.9067 12.424 15.5001 12.7234 15.2006C13.0228 14.9012 13.4295 14.7339 13.8529 14.736C14.1209 14.7431 14.3829 14.8165 14.6157 14.9495V14.9495C15.3763 15.3878 16.3482 15.1287 16.7896 14.3698V14.3698L17.3388 13.4545C17.5514 13.0896 17.6097 12.655 17.5009 12.247C17.3921 11.839 17.1251 11.4912 16.7591 11.2806V11.2806C16.3931 11.07 16.1261 10.7222 16.0173 10.3142C15.9085 9.90613 15.9668 9.47156 16.1794 9.10668C16.3176 8.86532 16.5177 8.66521 16.7591 8.52697V8.52697C17.5134 8.08579 17.7719 7.11962 17.3388 6.36068V6.36068V6.35305Z" stroke="#666E7A" stroke-width="1.25" stroke-linecap="round" stroke-linejoin="round"/>
<circle cx="10.1459" cy="9.90773" r="2.1968" stroke="#666E7A" stroke-width="1.25" stroke-linecap="round" stroke-linejoin="round"/>
</svg>
