<svg width="16" height="16" viewBox="0 0 16 16" fill="none" xmlns="http://www.w3.org/2000/svg">
<g id="star (2) copy">
<path id="Path" d="M15.9579 6.04559C15.8531 5.70845 15.5658 5.46899 15.2258 5.4371L10.6079 5.00075L8.78186 0.552958C8.64721 0.226992 8.34057 0.0159912 7.99988 0.0159912C7.65918 0.0159912 7.35254 0.226992 7.21789 0.55372L5.39184 5.00075L0.773191 5.4371C0.433836 5.46975 0.147215 5.70845 0.0418681 6.04559C-0.0634786 6.38273 0.0338115 6.75253 0.290525 6.98563L3.78113 10.1714L2.75183 14.8897C2.67651 15.2366 2.80591 15.5953 3.08252 15.8033C3.2312 15.9151 3.40515 15.972 3.58056 15.972C3.73181 15.972 3.88183 15.9296 4.01648 15.8458L7.99988 13.3683L11.9818 15.8458C12.2732 16.0282 12.6405 16.0115 12.9165 15.8033C13.1932 15.5946 13.3225 15.2359 13.2472 14.8897L12.2179 10.1714L15.7085 6.98627C15.9652 6.75253 16.0632 6.38337 15.9579 6.04559Z" fill="#FFC107"/>
</g>
</svg>
