<svg width="16" height="16" viewBox="0 0 16 16" fill="none" xmlns="http://www.w3.org/2000/svg">
<path d="M7.99967 14.6667C11.6806 14.6667 14.6663 11.681 14.6663 8C14.6663 4.31904 11.6806 1.33333 7.99967 1.33333C4.31871 1.33333 1.33301 4.31904 1.33301 8C1.33301 11.681 4.31871 14.6667 7.99967 14.6667ZM7.52347 4.19048C7.52347 3.92856 7.73776 3.71427 7.99967 3.71427C8.26159 3.71427 8.47588 3.92856 8.47588 4.19048V7.77143L10.6783 9.53334C10.883 9.69762 10.9163 9.9976 10.7521 10.2024C10.6592 10.319 10.5211 10.3809 10.3806 10.3809C10.2759 10.3809 10.1711 10.3476 10.083 10.2762L7.70207 8.37143C7.59017 8.28094 7.52351 8.14525 7.52351 8V4.19048H7.52347Z" fill="#838383"/>
</svg>
