<svg width="376" height="366" viewBox="0 0 376 366" fill="none" xmlns="http://www.w3.org/2000/svg">
<ellipse cx="188" cy="149.173" rx="167.597" ry="149.173" fill="#3EA2E3" fill-opacity="0.17"/>
<ellipse cx="85.4987" cy="270.673" rx="59.2662" ry="52.751" fill="#B4DBF4"/>
<ellipse cx="63.1526" cy="166.036" rx="59.2662" ry="52.751" fill="#B4DBF4"/>
<ellipse cx="28.6615" cy="245.162" rx="28.6615" ry="25.5108" fill="#B4DBF4" fill-opacity="0.48"/>
<ellipse cx="240.465" cy="245.163" rx="135.535" ry="120.636" fill="#9FD5F8" fill-opacity="0.7"/>
<path d="M258.466 314.524C258.657 314.464 258.859 314.431 259.067 314.431H284.358C285.497 314.431 286.454 315.404 286.454 316.562C286.454 317.721 285.497 318.694 284.358 318.694H262.625H189.716C188.584 318.694 187.666 317.76 187.666 316.609C187.666 315.457 188.584 314.524 189.716 314.524H258.466Z" fill="#FFCB3D"/>
<path d="M262.603 314.524H259.068C258.86 314.524 258.658 314.557 258.466 314.617H189.717C189.386 314.617 189.073 314.697 188.796 314.838L188.122 284.848L222.235 285.342L228.699 266.804L258.682 276.044C260.179 281.218 261.721 286.393 263.264 291.613C264.081 294.339 264.897 297.019 265.714 299.698C268.255 300.715 270.432 301.639 271.975 302.332C274.924 303.625 277.419 304.826 280.141 306.628C280.141 306.628 282.501 308.107 283.816 310.232C284.225 310.925 284.588 311.71 284.814 312.542C284.905 312.911 284.905 313.281 284.951 313.604C284.936 313.908 284.869 314.247 284.783 314.57C284.645 314.54 284.503 314.524 284.358 314.524H262.611C262.631 314.458 262.64 314.391 262.639 314.323C262.638 314.391 262.626 314.458 262.603 314.524Z" fill="#474961"/>
<path opacity="0.176986" d="M262.683 314.524C262.715 314.42 262.72 314.311 262.698 314.2C262.652 313.829 262.652 313.459 262.561 313.134C262.014 310.911 260.282 309.057 259.28 308.084C257.229 306.741 255.179 305.536 252.946 304.471C244.88 300.394 242.557 300.44 237.271 296.78C235.083 295.251 233.078 293.537 231.21 291.591L223.37 285.383L222.298 285.367L228.771 266.804L258.754 276.044C260.251 281.218 261.793 286.393 263.336 291.613C264.153 294.339 264.969 297.019 265.786 299.698C268.327 300.715 270.504 301.639 272.047 302.332C274.996 303.625 277.491 304.826 280.213 306.628C280.213 306.628 282.573 308.107 283.888 310.232C284.297 310.925 284.66 311.71 284.886 312.542C284.977 312.911 284.977 313.281 285.023 313.604C285.008 313.913 284.939 314.258 284.851 314.586C284.692 314.546 284.527 314.524 284.358 314.524H262.683Z" fill="#444444"/>
<path d="M232.541 254.108C232.704 258.062 232.924 261.349 233.239 263.762C233.292 264.366 233.262 268.806 232.446 270.382C229.912 275.209 215.863 273.791 203.35 274.145C190.837 274.499 183.939 275.742 180.216 272.814C178.175 271.218 177.872 268.352 177.751 267.352C177.192 262.259 176.543 257.099 175.857 251.913C160.261 258.204 150.453 261.936 146.432 263.107C142.453 264.266 138.044 264.578 134.034 264.768C99.8643 277.387 81.4676 257.027 79.5299 252.191C72.1287 233.719 75.3367 218.112 81.6184 207.325C85.138 198.003 175.853 156.061 181.059 153.8C171.259 158.136 186.265 151.539 181.059 153.8C190.859 149.465 195.594 146.426 205.755 148.015C215.912 149.604 227.367 154.899 228.38 161.937C228.38 161.937 229.161 167.705 229.482 170.779C231.604 170.323 233.616 169.843 235.519 169.339C235.525 169.335 235.531 169.33 235.538 169.326C240.546 165.815 259.051 162.917 268.094 166.912C279.273 171.851 285.839 183.765 284.144 196.037C281.725 213.559 280.34 223.058 279.992 224.533C279.471 226.794 273.148 252.359 270.84 261.742C270.333 263.872 268.111 265.487 265.262 265.779C262.122 266.119 242.959 258.5 232.541 254.108Z" fill="#A339FF"/>
<path opacity="0.176986" d="M232.716 254.181C231.952 234.075 232.503 197.815 229.672 170.802C231.762 170.352 233.745 169.879 235.621 169.381C235.628 169.377 235.634 169.373 235.64 169.368C240.648 165.857 259.153 162.959 268.196 166.954C279.376 171.893 285.941 183.807 284.247 196.079C281.827 213.602 280.443 223.1 280.094 224.575C279.574 226.836 273.251 252.401 270.943 261.784C270.436 263.914 268.214 265.53 265.364 265.821C262.232 266.161 243.149 258.578 232.716 254.181ZM176.042 251.922C160.398 258.233 150.562 261.976 146.534 263.149C142.739 264.255 138.552 264.59 134.694 264.783C135.352 264.536 136.016 264.276 136.686 264.003C151.251 258.078 163.698 249.075 174.025 236.992C174.697 241.969 175.386 246.957 176.042 251.922Z" fill="#444444"/>
<path d="M129.553 178.426C104.692 190.842 89.2731 199.766 83.2956 205.199L81.4929 206.11C72.3972 193.811 68.7178 177.157 70.4547 156.148C66.1099 155.066 62.3841 153.96 60.6818 153.15C57.2773 151.529 56.3556 147.983 57.9167 142.512C59.2244 137.254 61.8699 131.158 65.8532 124.224C70.5874 115.981 77.2663 115.741 81.577 116.291C85.3419 113.441 103.694 113.117 107.137 113.827C112.553 114.984 120.586 116.606 124.987 123.248C126.4 125.319 127.057 127.332 127.4 128.771C127.4 128.771 128.057 130.783 128.524 132.977C129.596 137.992 131.723 155.543 129.553 178.426Z" fill="#FFCB3D"/>
<path d="M183.325 112.432L137.948 153.974C136.919 154.915 136.836 156.527 137.762 157.572C138.689 158.618 140.273 158.703 141.302 157.761L186.679 116.22C187.708 115.278 187.791 113.667 186.865 112.621C185.939 111.575 184.354 111.491 183.325 112.432Z" fill="#474961"/>
<path d="M167.462 126.237L140.376 108.461C138.693 107.356 136.498 107.499 134.967 108.812L108.449 131.553C106.525 133.203 106.281 136.126 107.903 138.082C108.175 138.409 108.49 138.697 108.84 138.937L139.204 159.741L168.025 133.586C169.902 131.882 170.066 128.953 168.39 127.044C168.118 126.734 167.805 126.462 167.462 126.237Z" fill="#474BFF"/>
<path d="M92.6745 96.9037C91.3118 95.1091 90.0908 93.4215 89.4425 92.0332C88.4812 90.0116 88.982 84.1174 90.7995 81.7661C92.6171 79.4147 107.03 68.5389 107.212 68.5259C108.748 68.2774 117.401 67.2442 122.307 73.4903C122.755 74.0158 123.16 74.5908 123.529 75.3077C124.328 76.9692 124.773 78.7953 124.764 80.6537L124.694 88.9256C124.66 89.764 124.581 90.6056 124.453 91.4042C123.535 97.3214 121.726 102.234 119.66 105.399C118.134 107.784 116.405 109.207 114.817 109.366C114.365 109.445 111.907 109.573 108.983 108.899C108.793 108.849 108.843 108.89 107.653 108.462L107.896 113.912C111.841 114.751 116.949 115.909 121.058 118.954C115.192 122.127 108.696 123.555 101.569 123.238C98.5039 123.101 95.2718 122.683 91.8729 121.984C89.3504 118.948 86.2767 117.16 84.5608 116.872C83.7788 116.74 82.7185 116.522 81.4768 116.377C81.4984 116.358 81.5201 116.34 81.5418 116.321C83.0409 115.066 87.3498 114.286 92.0531 113.862L92.346 96.7986L92.6745 96.9037ZM131.112 163.302C131.217 163.301 131.323 163.295 131.428 163.283C131.326 163.288 131.225 163.287 131.123 163.282C131.119 163.289 131.116 163.295 131.112 163.302ZM137.207 158.238L139.14 159.546L140.935 157.922C140.994 157.877 141.052 157.829 141.108 157.777L142.181 156.795L167.817 133.601C168.174 133.279 168.469 132.912 168.702 132.516L176.454 125.419C179.965 123.654 182.689 122.958 183.598 124.257C183.598 124.257 170.007 139.242 162.829 147.107C160.951 152.112 158.168 158.513 154.479 166.309C145.289 170.677 136.956 174.729 129.478 178.464C129.959 173.581 130.242 168.938 130.379 164.603C121.452 180.152 107.652 193.291 88.9797 204.022C65.1011 217.744 61.2089 170.959 60.5892 152.897C60.6771 152.941 60.7667 152.984 60.8581 153.026C65.7551 155.255 88.4644 160.392 92.6722 159.697C92.7932 159.683 92.91 159.654 93.0225 159.612L92.3071 170.836L118.801 151.703C118.806 151.696 118.811 151.689 118.817 151.682L132.003 134.523C133.01 133.212 134.871 132.98 136.16 134.004C136.564 134.324 136.864 134.731 137.054 135.177L137.435 134.602C138.35 133.224 140.191 132.86 141.547 133.79C142.441 134.403 142.902 135.426 142.849 136.446C143.56 136.377 144.298 136.568 144.914 137.039L144.922 137.045C146.172 138.003 146.422 139.81 145.48 141.081C145.455 141.115 145.429 141.148 145.402 141.181L145.208 141.42C146.141 141.195 147.162 141.433 147.916 142.147C149.112 143.281 149.177 145.187 148.062 146.403L137.207 158.238ZM234.128 254.581C242.126 257.925 254.111 262.693 260.849 264.718L258.681 276.045L233.063 268.15C233.262 266.772 233.254 265.377 233.221 264.999C232.933 262.8 232.73 259.857 232.58 256.33C232.555 255.636 232.529 254.913 232.499 254.159L234.128 254.581ZM188.133 274.693C191.892 274.749 196.827 274.331 203.35 274.146C208.005 274.014 212.873 274.128 217.282 274.074L222.628 284.214L222.234 285.343L188.164 284.849L188.133 274.693Z" fill="#F2A98A"/>
<path opacity="0.2" d="M130.251 164.26C130.433 163.94 130.612 163.619 130.79 163.297C131.637 163.345 132.498 163.024 133.122 162.344L136.958 158.162L139.001 159.545L140.796 157.921C140.855 157.876 140.913 157.828 140.969 157.777L142.042 156.794L167.678 133.601C168.035 133.278 168.33 132.911 168.563 132.516L176.315 125.418C179.826 123.654 182.55 122.957 183.459 124.257C183.459 124.257 169.868 139.242 162.69 147.107C160.812 152.112 158.029 158.512 154.34 166.308C145.15 170.677 136.817 174.728 129.339 178.464C129.833 173.452 130.118 168.692 130.251 164.26Z" fill="#8C2A00"/>
<path d="M107.655 108.476L101.316 106.296L107.869 113.899L107.655 108.476Z" fill="#482D1F"/>
<path d="M114.887 68.7413C117.433 69.4037 120.109 70.742 122.141 73.3294C122.588 73.8549 122.993 74.4299 123.362 75.1468C123.715 75.8794 123.999 76.644 124.205 77.4292L101.122 85.6135L104.082 69.8047C108.498 69.1506 112.1 68.7962 114.887 68.7413Z" fill="#482D1F"/>
<path d="M116.673 69.7361C108.59 77.7831 103.443 83.0405 101.232 85.5085C101.15 85.6283 101.068 85.7523 100.986 85.88C100.888 85.4603 100.509 84.0949 99.4668 82.7765C99.3695 82.6905 98.5269 81.7287 97.31 81.3043C95.1163 80.6243 92.3647 81.7953 90.9559 83.8925C89.4593 86.0424 89.6468 88.7692 90.6536 90.7876C91.6603 92.806 93.4089 93.657 94.019 93.8922L96.4727 94.368L96.7204 94.2535C94.9166 98.1341 93.2722 101.626 92.2197 101.879C90.306 102.339 87.3549 98.1838 85.2712 96.1709C83.9471 94.8918 80.7661 90.7065 79.8146 84.8777C79.5318 82.9493 78.4814 76.4097 82.4319 71.2578C83.8104 69.4677 85.4479 68.5309 86.1207 68.1242C88.4104 66.8835 97.201 66.1742 103.955 65.7986C102.668 63.7721 101.886 59.5724 101.608 53.1995C101.599 52.9899 101.66 52.7834 101.781 52.6137C102.077 52.1997 102.647 52.1081 103.055 52.409C108.65 56.5447 112.211 59.5494 113.738 61.4231C114.858 59.6094 118.129 57.4965 123.549 55.0846C123.74 54.9999 123.953 54.9839 124.154 55.0393C124.64 55.1736 124.926 55.6827 124.794 56.1765C122.546 64.5861 120.836 69.004 119.663 69.4302C119.018 69.6644 118.021 69.7664 116.673 69.7361Z" fill="#DE3190"/>
<path d="M122.48 90.539C122.579 89.9747 123.095 89.52 123.647 89.5736C124.014 89.594 124.306 89.8519 124.487 90.4893C124.734 92.0972 123.147 94.2536 122.58 93.3186C122.175 92.7436 122.356 91.3839 122.48 90.539ZM112.478 89.979C112.576 89.4147 113.093 88.9599 113.645 89.0136C114.012 89.0339 114.304 89.2919 114.485 89.9292C114.732 91.5371 113.145 93.6935 112.578 92.7585C112.173 92.1835 112.354 90.8238 112.478 89.979Z" fill="#482D1F"/>
<path d="M119.09 91.1396L119.454 95.7581C119.455 95.7755 119.39 95.8508 119.369 95.8524C119.12 95.8701 118.865 95.8715 118.465 95.8607C118.388 95.8586 118.307 95.8561 118.19 95.8524C118.043 95.8476 117.962 95.845 117.885 95.8426C117.621 95.8344 117.402 95.8288 117.168 95.8248C116.916 95.8205 116.709 96.0244 116.705 96.2802C116.7 96.536 116.901 96.747 117.153 96.7513C117.382 96.7552 117.597 96.7607 117.857 96.7688C117.934 96.7712 118.014 96.7738 118.161 96.7785C118.279 96.7823 118.362 96.7848 118.441 96.787C118.867 96.7985 119.148 96.7969 119.432 96.7767C119.956 96.7395 120.399 96.2214 120.362 95.6888L119.999 91.0657C119.979 90.8107 119.759 90.6204 119.508 90.6408C119.257 90.6612 119.07 90.8845 119.09 91.1396Z" fill="#482D1F"/>
<path d="M116.461 99.4021C116.133 99.2861 115.335 98.9713 115.258 98.5123C115.252 98.4199 115.197 98.2845 115.284 98.2318C115.496 97.9846 116.057 98.1769 116.891 98.3498C118.371 98.6161 119.56 98.6245 119.56 98.6245C119.56 98.6245 119.156 99.3963 118.896 99.6006C118.388 100.194 116.932 99.6009 116.461 99.4021Z" fill="#482D1F"/>
<path d="M105.413 88.7309L102.692 88.0897C102.324 88.003 102.095 87.6297 102.181 87.2558C102.266 86.8819 102.633 86.649 103.001 86.7357L105.927 87.4251C106.938 85.4853 108.882 84.1041 111.195 83.9396C114.76 83.6862 117.852 86.419 118.101 90.0436C118.107 90.1301 118.112 90.2164 118.114 90.3024L119.5 90.3763C119.916 87.3664 122.354 84.9575 125.456 84.737C129.021 84.4836 132.113 87.2164 132.363 90.841C132.612 94.4655 129.924 97.6093 126.359 97.8627C122.796 98.116 119.706 95.3868 119.453 91.7656L118.013 91.6888C117.495 94.5751 115.109 96.8513 112.098 97.0654C108.533 97.3188 105.441 94.586 105.192 90.9614C105.139 90.1882 105.219 89.4369 105.413 88.7309ZM106.88 88.6444C106.621 89.3302 106.502 90.0832 106.555 90.8645C106.752 93.7233 109.191 95.8787 112.003 95.6788C114.814 95.4789 116.934 92.9993 116.738 90.1405C116.541 87.2817 114.102 85.1262 111.291 85.3261C109.36 85.4634 107.756 86.6754 107.003 88.3469C107.001 88.3613 106.998 88.3758 106.995 88.3902C106.973 88.485 106.933 88.5706 106.88 88.6444ZM120.804 91.2668C120.803 91.3975 120.807 91.5293 120.817 91.6618C121.013 94.5207 123.452 96.6761 126.264 96.4762C129.075 96.2763 131.195 93.7967 130.999 90.9379C130.802 88.0791 128.363 85.9236 125.552 86.1235C122.963 86.3076 120.961 88.4237 120.813 90.9891C120.821 91.0388 120.824 91.0902 120.821 91.1426C120.819 91.1852 120.813 91.2267 120.804 91.2668Z" fill="#482D1F"/>
<path d="M174.447 237.313L170.519 198.627C170.48 198.245 170.144 197.968 169.769 198.007C169.393 198.047 169.12 198.388 169.159 198.77L173.087 237.455C173.126 237.837 173.462 238.115 173.837 238.075C174.213 238.036 174.486 237.695 174.447 237.313Z" fill="#482D1F"/>
<path fill-rule="evenodd" clip-rule="evenodd" d="M95.7485 148.004C96.1255 147.984 96.4472 148.278 96.4672 148.661L95.7846 148.698C96.4672 148.661 96.4672 148.661 96.4672 148.661L96.4673 148.664L96.4676 148.669L96.4685 148.688C96.4693 148.705 96.4703 148.729 96.4715 148.759C96.4738 148.82 96.4768 148.909 96.4795 149.023C96.4849 149.25 96.4889 149.575 96.4841 149.973C96.4744 150.769 96.4289 151.863 96.2852 153.052C96.1418 154.238 95.8985 155.538 95.486 156.737C95.0756 157.931 94.4809 159.076 93.6044 159.902C93.3274 160.162 92.8949 160.146 92.6384 159.864C92.3819 159.582 92.3984 159.143 92.6753 158.882C93.3249 158.27 93.8238 157.36 94.1955 156.279C94.565 155.204 94.7921 154.01 94.9284 152.882C95.0643 151.757 95.1078 150.716 95.1171 149.956C95.1218 149.576 95.1179 149.268 95.1129 149.056C95.1104 148.95 95.1076 148.868 95.1055 148.814C95.1044 148.786 95.1035 148.766 95.1029 148.753L95.1022 148.738L95.1021 148.735C95.1021 148.735 95.1021 148.735 95.1021 148.734M95.7485 148.004C95.3716 148.024 95.0822 148.351 95.1021 148.734L95.7485 148.004Z" fill="#482D1F"/>
</svg>
