<svg xmlns="http://www.w3.org/2000/svg" width="240" height="200" fill="none"><ellipse cx="94.59" cy="94.66" fill="#fff" rx="94.59" ry="94.66" transform="matrix(-1 0 0 1 197.18 10.68)"/><path fill="#2e3257" d="m123.735 20.68 31.735 146.542c1.076 4.967-2.075 9.866-7.039 10.941L57.67 197.847c-4.964 1.077-9.859-2.077-10.934-7.044L15.002 44.261c-1.076-4.967 2.075-9.866 7.039-10.942l90.761-19.684c4.964-1.076 9.859 2.078 10.933 7.045z"/><path fill="#87cbc7" d="m24.072 43.07 30.903 142.675 92.17-19.994-30.902-142.675z"/><path fill="#e2e6ee" d="m116.251 23.076-92.17 19.993 1.772 8.187 92.171-19.993z"/><path fill="#fff" d="M30.16 43.918a1.843 1.843 0 1 0 .655 3.628 1.843 1.843 0 0 0-.655-3.628zM36.205 42.828a1.843 1.843 0 1 0 .655 3.628 1.843 1.843 0 0 0-.655-3.628zM42.049 41.773a1.843 1.843 0 1 0 .655 3.628 1.843 1.843 0 0 0-.655-3.627z"/><path fill="#1a213d" d="M107.075 180.417a4.203 4.203 0 0 1-3.212 4.992 4.2 4.2 0 0 1-4.988-3.213 4.203 4.203 0 0 1 3.211-4.993 4.201 4.201 0 0 1 4.989 3.214zm-6.504 1.411c.287 1.326 1.6 2.172 2.925 1.884s2.17-1.601 1.882-2.927a2.461 2.461 0 0 0-2.924-1.884 2.463 2.463 0 0 0-1.883 2.927z"/><path fill="#ffb6ad" d="M214.612 47.126c-1.404-1.305-3.639-1.063-4.536-.916-.924.152-1.856.46-2.692.853-.52-1.13-1.038-2.26-1.557-3.392 1.849-1.39 3.698-2.783 5.548-4.175l4.484.378c-1.16-.82-4.357-2.855-8.924-2.94a16.047 16.047 0 0 0-8.544 2.299 55.971 55.971 0 0 0-11.666 12.327 55.53 55.53 0 0 0-4.434 7.66c3.084 3.333 7.147 6.749 12.411 9.321a38.63 38.63 0 0 0 2.019.918l2.938-5.696L211 54.94a.455.455 0 0 1-.014-.032l-.015-.033c.595.12 2.002.31 3.179-.475 2.21-1.474 2.337-5.536.464-7.276z"/><path fill="#ffaf03" d="m189.212 38.077 32.589 1.631 9.79 4.145c.579.246.523 1.085-.084 1.251l-10.113 2.758-32.589-1.631z"/><path fill="#ffe9ad" d="m221.802 39.708 9.79 4.145c.579.246.523 1.085-.084 1.251l-10.113 2.758c-.046-.022-.771-.395-.849-1.178-.064-.64.333-1.278.984-1.54-1.065.038-1.833-.86-1.732-1.676.086-.685.783-1.296 1.652-1.28-.742-.069-1.281-.635-1.3-1.2-.025-.687.715-1.41 1.652-1.28z"/><path fill="#f32f61" d="M191.249 38.18a18.6 18.6 0 0 0-.407 8.152l-5.431-.272a6.867 6.867 0 0 1-1.166-3.917c.038-2.267 1.206-3.792 1.573-4.235 1.811.09 3.622.182 5.431.271z"/><path fill="#2e3257" d="m231.509 45.104-1.728.472a3.849 3.849 0 0 1 .093-2.449l1.719.728c.579.245.523 1.084-.084 1.25zM194.79 42.007a20.695 20.695 0 0 0 .104 4.527l-.69-.035a21.436 21.436 0 0 1 .535-8.146l.692.035a20.88 20.88 0 0 0-.641 3.62zM196.602 42.098a20.82 20.82 0 0 0 .104 4.527l-.689-.035a21.37 21.37 0 0 1 .535-8.146l.692.035a20.882 20.882 0 0 0-.642 3.62z"/><path fill="#ff9c90" d="M214.425 49.52a20.569 20.569 0 0 0-3.262.405 20.615 20.615 0 0 0-3.899 1.222c-1.341.085-2.356-.53-2.531-1.155-.091-.326.016-.767.288-1.18.48-.73 1.331-1.228 2.335-1.363a.347.347 0 0 0 .298-.391.345.345 0 0 0-.39-.299c-1.204.163-2.233.772-2.824 1.67-.386.588-.524 1.226-.376 1.752.236.843 1.224 1.48 2.414 1.635-.621.69-.664 1.225-.617 1.517.175 1.1 1.774 1.852 4.026 1.958.362.017.741.018 1.133 0a.35.35 0 0 0-.031-.696c-2.591.114-4.322-.625-4.443-1.373-.016-.098-.038-.618.975-1.428a19.828 19.828 0 0 1 6.935-1.578.35.35 0 0 0-.031-.696zM194.236 52.215c1.445.234 2.791-.566 3.986-1.28a24.716 24.716 0 0 0 5.068-4.01c.248-.254-.141-.644-.389-.39a24.258 24.258 0 0 1-3.84 3.217c-.688.464-1.399.894-2.133 1.282-.772.41-1.651.794-2.545.65-.347-.056-.496.475-.147.531zM195.357 60.01a7.895 7.895 0 0 0 4.243 3.474c.336.116.48-.417.147-.531a7.307 7.307 0 0 1-3.914-3.222c-.179-.306-.654-.028-.475.278z"/><path fill="#ffb6ad" d="M191.115 46.603c2.039-1.487 5.105-3.17 8.98-3.44 1.242-.088 4.016-.281 4.468.797.537 1.278-2.42 3.803-5.802 6.205l-7.646-3.56z"/><path fill="#222849" d="m124.129 142.85-58.152 8.184a209.84 209.84 0 0 0 2.043 31.885l59.942-13-3.833-27.069z"/><path fill="#f7c143" d="M183.867 56.232c-11.739 17.313-22.801 20.158-27.91 20.764-16.207 1.924-39.713-10.685-41.682-11.76-1.941-1.058-6.323-3.56-12.637-4.503-7.099-1.06-12.697.705-15.239 1.09-34.74 5.251-40.564 40.909-41.635 44.661-3.022 10.595-.97 15.02.544 17.156 2.477 3.49 6.36 4.865 8.707 5.447h10.986a164.568 164.568 0 0 0-.584 28.313l59.97-13.899-.056-14.414h.435l1.258-28.568c5.233 2.196 16.929 6.204 31.032 3.307 27.177-5.582 38.564-31.722 39.662-34.363l-12.853-13.23z"/><path fill="#fff" d="M83.256 129h41.758l3.276-47.083-41.557-2.896z"/><path fill="#48b290" d="M123.395 83.64a4.061 4.061 0 0 0-4.498-3.573l-37.35 4.293 3.64 54.334 38.711-2.622a3.455 3.455 0 0 0 3.21-3.71l-3.713-48.72z"/><path fill="#6a3445" d="M84.04 34.056c-1.017-4.023-3.51-7.58-5.271-11.382-.71-1.531-1.076-3.716.527-4.502.752-.37 1.703-.257 2.453-.632 1.084-.541 1.339-1.895 1.079-2.999s-.893-2.115-1.127-3.224c-.61-2.9 2.173-5.983 5.4-5.98.932 0 1.886.215 2.78-.023.717-.19 1.307-.65 1.853-1.116 1.092-.93 2.137-1.95 3.474-2.552 1.337-.603 3.084-.691 4.216.196.656.514 1.094 1.329 1.926 1.542.901.23 1.781-.359 2.509-.897 1.616-1.196 3.423-2.368 5.497-2.48 2.075-.114 4.371 1.298 4.285 3.198-.027.592-.196 1.344.361 1.645.28.152.632.103.953.052 1.274-.204 2.6-.371 3.847-.06 1.248.312 2.405 1.223 2.54 2.4.073.631-.145 1.292.081 1.893.78 2.062 5.023.667 6.166 2.582.66 1.108-.275 2.41-1.084 3.433-.809 1.023-1.489 2.554-.493 3.427.402.352.974.477 1.469.71.985.464 1.687 1.513 1.438 2.501-.249.989-1.631 1.656-2.57 1.115.125.488.748 3.154-1.044 5.574-1.657 2.238-4.727 3.385-7.857 2.945-4.087 2.446-24.004 14.252-29.191 13.312-.701-.127-1.235-.407-1.235-.407-2.669-1.935-2.28-7.514-2.978-10.272z"/><path fill="#562439" d="M97.181 5.045c-1.638-.46-3.675-.917-5.06.404-.615.587-.834 1.423-.91 2.242-.079.859-.051 1.734.51 2.432.25.31.561.55.9.753a6.892 6.892 0 0 0-3.798 1.354c-1.412 1.06-2.693 2.949-2.04 4.78.246.694.747 1.315 1.412 1.624a2.452 2.452 0 0 0-.894 2.168c.128 1.113 1.08 1.86 2.169 1.924a2.286 2.286 0 0 0 1.652-.56c.267-.235-.125-.623-.39-.39-.765.673-2.145.481-2.675-.4-.528-.876-.07-2.194.887-2.557.222-.085.298-.486 0-.532-.73-.11-1.3-.636-1.584-1.308-.315-.744-.213-1.591.12-2.312.691-1.502 2.174-2.566 3.735-3.011a6.23 6.23 0 0 1 2.694-.169c.353.057.475-.398.147-.531-.599-.245-1.228-.513-1.703-.963-.577-.544-.652-1.244-.61-2.003.038-.72.164-1.508.676-2.055.455-.488 1.125-.74 1.78-.8.968-.088 1.917.184 2.838.443.342.096.488-.435.147-.531zM121.715 12.782c-.307-.782-.734-1.495-1.192-2.172-.08-.118-.207-.178-.33-.097-.103.066-.165.257-.087.374.705 1.042 1.368 2.203 1.551 3.524.154 1.116-.152 2.27-.903 3.033-.395.402-.892.619-1.423.578-.148-.011-.284.186-.232.346.251.777-.363 1.529-1.003 1.706-.85.233-1.722-.367-2.389-.893-.174-.138-.412.09-.353.31.166.625-.296 1.196-.792 1.379-.583.215-1.248.113-1.839-.007-1.069-.215-2.188-.69-2.829-1.743-.175-.287-.593-.014-.415.275.596.979 1.531 1.549 2.527 1.848a6.943 6.943 0 0 0 1.601.284c.576.033 1.195-.057 1.661-.474a1.82 1.82 0 0 0 .589-1.11c.754.527 1.671.949 2.53.6.712-.288 1.337-1.105 1.249-1.979.962-.08 1.777-.877 2.195-1.847.548-1.27.379-2.679-.116-3.935zM123.256 23.027c.677 1.094.148 2.485-.62 3.384-.417.487-.974.982-1.633 1.073-.741.102-1.427-.378-2.008-.77-.139-.093-.375-.005-.405.165-.166.943-.817 1.789-1.724 2.127a2.775 2.775 0 0 1-2.793-.547c-.263-.238-.653.15-.39.39.882.8 2.199 1.106 3.328.688a3.353 3.353 0 0 0 2.019-2.14c.454.291.937.55 1.476.625.633.089 1.241-.128 1.748-.505.93-.69 1.663-1.765 1.828-2.924.092-.643-.008-1.287-.352-1.843-.185-.302-.663-.025-.475.278z"/><path fill="#ffb6ad" d="M88.849 33.227c-1.147-1.084-2.767-1.402-4.082-.817-1.681.75-2.176 2.67-2.04 3.95.217 2.06 2.22 3.874 4.897 4.085-.453 7.17-.908 14.342-1.36 21.513l12.653 8.033 2.857-9.123.816-8.714a13.94 13.94 0 0 0 4.898-2.995c2.478-2.348 3.39-5.073 4.082-7.353 2.078-6.85 3.253-13.563 3.898-18.008a15.692 15.692 0 0 1-2.937-.735c-6.636-2.363-6.244-8.085-10.651-8.085-1.045 0-1.585.226-1.809.593-.896 1.467 1.942 4.267 1.074 5.47-.96 1.333-5.43-1.038-7.253.828-.23.235-.66.786-1.47 1.103-.696.273-1.366.25-1.836.183l-1.74 10.072z"/><path fill="#6a3445" d="M106.196 38.407c-4.894-1.53-7.567 1.753-11.201.183-3.357-1.451-3.963-4.97-5.142-4.594-1.565.498-.812 6.807-.55 9.005.407 3.411.635 5.147 1.837 6.616 1.912 2.337 4.822 2.773 7.16 3.124 2.948.442 6.518.977 8.999-1.103 1.815-1.522 2.635-4.292 4.273-9.832.104-.352.188-.647.246-.852-2.164-.513-3.226-1.798-5.621-2.546z"/><path fill="#fff" d="M104.36 42.576c-.301.359-4.17 4.905-5.652 4.212-1.042-.489-.441-3.35-.182-4.432l5.835.22z"/><g fill="#222849"><path d="M98.434 23.148a.543.543 0 0 1-.125-1.003c.544-.298 1.66-.76 3.016-.487a4.284 4.284 0 0 1 1.727.776.545.545 0 0 1-.65.874 3.212 3.212 0 0 0-1.293-.582c-1.017-.205-1.863.146-2.275.374a.539.539 0 0 1-.401.05zM116.262 24.372a.541.541 0 0 1-.514-.16c-.153-.164-.578-.55-1.21-.603-1.001-.084-1.655.747-1.682.784a.546.546 0 0 1-.764.098.546.546 0 0 1-.098-.763c.105-.137 1.076-1.332 2.634-1.203 1.009.084 1.674.688 1.913.943a.545.545 0 0 1-.281.905zM102.708 28.064c0 1.201-.483 2.176-1.079 2.176-.595 0-1.078-.975-1.078-2.176s.483-2.176 1.078-2.176c.596 0 1.079.974 1.079 2.176zM113.665 29.035c-.023.97-.437 1.74-.925 1.723-.488-.018-.866-.819-.842-1.786.023-.97.437-1.74.925-1.723.488.018.866.819.842 1.786z"/></g><path fill="#f9867d" d="M107.71 36.736a.423.423 0 0 1-.138-.023l-3.176-1.138a.41.41 0 0 1 .275-.77l2.56.918a40.803 40.803 0 0 1 .676-12.793.408.408 0 1 1 .798.17 40.079 40.079 0 0 0-.59 13.177.412.412 0 0 1-.405.459zM88.443 36.223a.41.41 0 0 1-.373-.24 1.922 1.922 0 0 0-1.57-1.124 1.933 1.933 0 0 0-1.793.899.408.408 0 0 1-.692-.433 2.718 2.718 0 0 1 2.56-1.28 2.74 2.74 0 0 1 2.24 1.601.407.407 0 0 1-.372.577z"/><path fill="#ffaf03" d="m65.247 109.338 36.174 1.322v18.707l-37.642-.378 1.47-19.651z"/><path fill="#fff" d="m83.163 62.78 3.201-5.869c2.887 1.532 5.775 3.062 8.662 4.593l3.448 7.416 1.503-7.874 2.587-2.91 2.068 4.405-.34 5.347-2.28-2.51c-1.115 3.17-2.228 6.343-3.343 9.514l-6.883-7.276-2.104 2.92-6.52-7.757zM120.009 25.315a32.25 32.25 0 0 0-10.758.054l-.182.032a4.43 4.43 0 0 0-3.161.171 18.221 18.221 0 0 0-6.497-1.695 18.48 18.48 0 0 0-5.473.429l-.135.03-3.865-.684-.149.865 3.733.66c-.35 5.507 1.789 9.201 5.65 9.687.154.02.307.031.46.035a4.69 4.69 0 0 0 2.679-.771c2.018-1.302 3.449-4.105 3.957-7.72.319-.165.796-.34 1.399-.349.476-.006.878.093 1.176.206.122 5.628 1.959 9.311 4.738 9.427.036 0 .071.002.106.003 3.954.102 5.424-3.402 6.739-9.875l.085-.422-.506-.083zm-18.341 8.12c-.742.478-1.531.67-2.349.565-3.258-.41-5.101-3.902-4.74-8.932a17.26 17.26 0 0 1 4.755-.322 17.04 17.04 0 0 1 5.906 1.506c-.466 3.362-1.792 6.035-3.572 7.183zm11.958 1.385c-2.362-.099-3.648-4.375-3.734-8.667a31.102 31.102 0 0 1 9.419-.061c-1.388 6.633-2.846 8.84-5.683 8.728z"/><path fill="#ffb6ad" d="M124.579 109.361c.132.359-.221.965-1.273 1.79-.98.769-2.517 1.711-4.608 2.826l8.793.266c.135.071 1.034.569 1.231 1.583.194.997-.368 2.08-1.412 2.608.815.128 1.501.645 1.742 1.35.335.979-.218 2.208-1.384 2.705a2.486 2.486 0 0 1 .765 2.977 2.481 2.481 0 0 1-2.742 1.425c.862.385 1.279.729 1.252 1.033-.057.624-1.99 1.077-5.801 1.36l-19.732.187.024-18.59c2.145.02 5.645-.026 9.953-.461 7.305-.738 12.778-2.179 13.193-1.056z"/><path fill="#ff9c90" d="m127.312 122.141-4.051-.034c-.013 0-.023.005-.035.007l.512-3.583c.05.121.168.206.308.208l3.26.034h.004a.34.34 0 0 0 .004-.679l-3.26-.033h-.004a.335.335 0 0 0-.264.136l.26-1.83a.338.338 0 1 0-.669-.096l-1.583 11.082a.34.34 0 0 0 .287.383c.017.002.033.004.048.004a.34.34 0 0 0 .335-.291l.67-4.692a.38.38 0 0 0 .122.026l4.051.033h.003a.34.34 0 0 0 .002-.678z"/><path fill="#946695" d="M101.42 110.215c-4.734-.242-9.466-.486-14.2-.741-3.655-.196-7.309-.395-10.963-.61-1.013-.06-2.026-.121-3.038-.19-.805-.055-1.608-.131-2.372-.416-.542-.201-1.07-.531-1.374-1.036-.35-.58-.37-1.286-.244-1.936.245-1.274.904-2.433 1.466-3.588.655-1.342 1.305-2.686 1.954-4.03 1.47-3.047 2.935-6.094 4.404-9.14l1.215-2.518c.227-.471-.476-.886-.705-.412-1.575 3.26-3.145 6.525-4.717 9.788a2582.33 2582.33 0 0 1-2.047 4.24c-.593 1.223-1.234 2.433-1.774 3.682-.543 1.253-1 2.754-.392 4.068.535 1.159 1.79 1.711 2.978 1.936 1.096.206 2.241.223 3.354.291 3.368.206 6.74.391 10.109.573 5.339.289 10.679.567 16.019.84l.33.017v-.818z"/><path fill="#151b35" d="m101.677 165.497-.07-2.816c.68-.193 1.351-.417 2.01-.677.196-.077.333-.261.273-.48-.051-.185-.282-.349-.479-.272a21.255 21.255 0 0 1-4.838 1.274c-.209.029-.322.295-.272.479.062.225.27.302.479.273.691-.097 1.375-.23 2.053-.394l.253 10.27.064 2.58.775-.167-.25-10.069z"/></svg>