<svg xmlns="http://www.w3.org/2000/svg" width="240" height="200" fill="none"><clipPath id="a"><path d="M.664 0h238.673v200H.664z"/></clipPath><g clip-path="url(#a)"><circle cx="124.821" cy="108.064" r="95.161" fill="#fff"/><path fill="#52b5b5" d="M87.364 85.275h-35.57a4.691 4.691 0 0 0-4.687 4.685v16.532a4.691 4.691 0 0 0 4.687 4.685H74.04l10.833 8.802v-8.802h2.491a4.691 4.691 0 0 0 4.687-4.685V89.96a4.691 4.691 0 0 0-4.687-4.685z"/><path fill="#fff" d="M83.508 91.657h-27.55c-.988 0-.99 1.536 0 1.536h27.55c.989 0 .99-1.536 0-1.536zM83.508 97.455h-27.55c-.988 0-.99 1.536 0 1.536h27.55c.989 0 .99-1.536 0-1.536zM83.508 103.253h-27.55c-.988 0-.99 1.536 0 1.536h27.55c.989 0 .99-1.536 0-1.536z"/><path fill="#23161a" d="M155.821 25.57c-16.482 7.668-21.353 22.858-29.56 48.444-.797 2.486-1.363 6.246.022 9.798 2.06 5.29 9.467 7.593 14.164 4.405-1.088 4.952 4.564 9.003 9.63 9.218 5.067.216 10.014-1.806 15.084-1.715 6.852.121 13.572 4.077 20.241 2.506 5.939-1.4 10.173-6.854 15.983-8.717 5.388-1.726 11.661-.204 16.588-2.987 7.468-4.219 6.943-15.69 2.062-22.746-5.034-7.276-8.316-7.478-18.269-18.045-11.568-12.28-9.898-18.407-17.903-22.482-11.011-5.604-24.559.7-28.042 2.322z"/><path fill="#0a0808" d="M215.787 81.572c-3.426-.017-6.798-.538-9.949-1.923-2.344-1.03-4.691-2.134-6.631-3.839-1.96-1.722-3.614-4.306-3.186-7.022.365-2.317 1.732-4.327 2.005-6.684.78-6.722-4.199-12.926-9.596-16.296a19.45 19.45 0 0 0-4.944-2.18c-1.454-.42-2.974-.671-4.375-1.257-3.499-1.464-5.79-4.798-6.961-8.294-.318-.952-1.804-.47-1.484.485 1.101 3.287 3.065 6.337 5.997 8.27 2.529 1.667 5.598 1.826 8.344 2.962 3.138 1.297 5.954 3.525 8.062 6.177 2.088 2.627 3.637 5.89 3.471 9.317-.119 2.473-1.531 4.528-1.997 6.906-.562 2.87.687 5.686 2.599 7.782 1.858 2.035 4.34 3.421 6.823 4.55 1.277.583 2.564 1.144 3.909 1.55 1.742.524 3.541.808 5.352.952 2.818.224 5.682.157 8.525-.168.333-.545.615-1.124.859-1.725a49.002 49.002 0 0 1-6.821.442zM168.007 31.39c-3.549 4.593-9.168 6.825-14.749 7.732a56.607 56.607 0 0 1-4.581.536c-.746.06-1.494.108-2.242.15-.728.042-1.496.013-2.212.168-1.528.335-1.788 1.83-2.214 3.117l-1.498 4.514c-.949 2.864-1.826 5.767-2.898 8.588-.948 2.498-2.167 4.715-3.935 6.723-.785.891-1.569 1.82-1.962 2.957-.453 1.316-.096 2.555.227 3.853.358 1.435.408 2.926.37 4.399-.038 1.47-.106 2.962-.29 4.421-.189 1.496-.599 2.922-1.447 4.183-.791 1.18-1.864 2.16-3.046 2.937-.05.033-.101.063-.151.095.317.42.67.81 1.055 1.169 1.658-1.067 3.073-2.473 4.041-4.36 1.286-2.505 1.302-5.528 1.392-8.281.05-1.501-.007-2.999-.307-4.473-.275-1.352-.841-2.594-.167-3.92.54-1.064 1.444-1.895 2.199-2.802.867-1.045 1.595-2.204 2.207-3.415 1.277-2.533 2.095-5.279 2.986-7.964 1.024-3.092 2.033-6.188 3.074-9.273.08-.235.136-.562.309-.75.24-.258.647-.238.97-.258.79-.048 1.579-.08 2.367-.131a66.108 66.108 0 0 0 4.718-.458c6.359-.876 12.897-3.173 16.953-8.422.611-.79-.55-1.836-1.167-1.038z"/><path fill="#ffaf03" d="M181.992 34.23c-4.21-5.352-10.751-7.916-17.325-8.885-2.574-.38-5.228-.51-7.704.383a6.713 6.713 0 0 1-1.111.307 21.897 21.897 0 0 0 .683-10.802c-.326-1.72-.844-3.624-2.401-4.642-.795-.519-1.815-.63-2.684-.232-1.016.466-1.582 1.48-1.804 2.536-.829 3.94-.343 8.078 1.234 11.772.171.398.356.822.567 1.245-1.454-.578-2.887-1.011-4.479-1.185-3.327-.364-6.845.356-9.744 2.031-.761.44-1.486.952-2.169 1.508-.848.69-.508 1.895.232 2.466 5.775 4.46 14.367 3.791 19.441-1.438.056-.058.104-.123.152-.187.848.146 1.703.023 2.518-.247.28-.093.557-.196.834-.299l.166-.061c.003 0 .005 0 .008-.002a7.77 7.77 0 0 1 .725-.18c.26-.05.524-.08.788-.112l.051-.007h.08c.189-.005.38-.016.569-.02.685-.011 1.371.019 2.054.075 1.609.133 3.069.387 4.619.768 3.271.803 6.449 1.992 9.139 4.043 5.61 4.28 8.218 11.845 8.427 18.795.029.985.013 1.97-.039 2.953-.104 2.012 3.017 2.161 3.122.153.379-7.304-1.372-14.912-5.951-20.735zM152.411 13.2s.01.012.023.02c-.075-.013-.027-.131-.023-.02zm.124 1.19c.042-.3.118-.59.179-.883l.05.058c.027.051.163.292.202.373.024.048.097.232.113.262.048.156.09.315.131.473.111.436.207.874.289 1.316.144.787.247 1.58.28 2.377.063 1.46-.03 2.939-.302 4.379a17.042 17.042 0 0 1-.877-3.162 16.777 16.777 0 0 1-.067-5.192zm-8.407 16.23c-1.673-.02-3.204-.377-4.755-1.057-.071-.035-.3-.143-.333-.16a5.215 5.215 0 0 1-.076-.041c2.154-1.18 4.68-1.73 7.176-1.574 1.469.091 2.897.468 4.237 1.032-.144.086-.308.179-.507.292-1.755.981-3.723 1.53-5.742 1.507z"/><path fill="#aa7eab" d="M167.141 94.776c-5.284 1.326-10.775 3.419-16.157 6.621-27.994 16.665-32.88 51.404-33.749 58.68-10.946 4.965-21.89 9.932-32.837 14.898 3.75 8.918 7.5 15.709 11.25 24.627l127.089-.304c1.654-.026 5.918.604 8.817-.912 5.796-3.03 6.08-6.08 6.688-10.946 4.317-34.541-3.99-66.995-28.217-82.837-16.68-10.906-34.651-10.566-42.886-9.828z"/><path fill="#946695" d="M139.523 138.904v60.195c0 1.175 1.825 1.176 1.825 0v-60.195c0-1.174-1.825-1.176-1.825 0zM167.812 116.81c2.3.517 4.73.501 7.072.355 2.32-.145 4.67-.518 6.846-1.362 4.523-1.756 7.282-5.665 9.691-9.681a57.674 57.674 0 0 0 4.136-8.393 55.586 55.586 0 0 0-1.499-.465 57.001 57.001 0 0 1-2.85 6.09c-1.069 1.966-2.24 3.891-3.567 5.696-1.261 1.714-2.709 3.285-4.554 4.378-1.851 1.096-3.987 1.668-6.104 1.96-2.182.302-4.454.407-6.65.219-2.123-.181-4.244-.71-5.991-1.978-1.526-1.108-2.736-2.612-3.592-4.288-1.911-3.736-1.974-7.962-1.418-12.052-.552.22-1.106.45-1.66.69-.407 3.592-.3 7.254 1.045 10.641 1.605 4.045 4.779 7.219 9.093 8.188zM164.132 174.972l28.213-4.853c1.144-.198 2.289-.393 3.433-.591.952-.164 1.901-.343 2.798-.713.954-.393 1.768-.97 2.39-1.799.565-.755.91-1.669 1.114-2.584.206-.924.291-1.874.362-2.816a258.268 258.268 0 0 0 .592-10.709c.182-5.336.196-10.676.045-16.011-.033-1.171-1.858-1.176-1.825 0a255.054 255.054 0 0 1-.263 20.993c-.12 2.227-.229 4.466-.455 6.687-.157 1.541-.511 3.314-1.929 4.198-.751.467-1.622.68-2.481.849-1.068.21-2.146.376-3.219.562-4.577.788-9.155 1.576-13.734 2.362l-15.525 2.67c-.486.083-.758.68-.637 1.123.141.514.635.721 1.123.637z"/><path fill="#725022" d="M193.157 64.177c2.012-3.207.58-7.858-2.801-9.495-2.427-1.174-5.52-.635-7.721 1.402l-.394-9.026c-4.928 1.22-9.928-.076-12.947-3.478-2.222-2.504-2.701-5.398-2.831-6.736-2.137 2.479-5.974 6.247-11.828 8.912a34.025 34.025 0 0 1-8.601 2.607l.056 10.744c-.766.047-3.24.297-4.919 2.213-2.589 2.957-2.013 8.44 1.229 10.574 2.133 1.403 4.662.861 5.394.675 1.608 9.785 7.746 17.166 15.236 18.547.602.111 1.191.176 1.77.21l-.513 9.094c.838 4.157 3.387 7.699 6.886 8.853 5.261 1.737 12.446-1.996 14.756-9.59l-.245-32.708c2.99.69 6.012-.47 7.473-2.801z"/><path fill="#5e401c" d="M161.935 84.879c.581-.171 1.161-.344 1.74-.516.204-.06.382-.163.498-.348a.798.798 0 0 0 .102-.581c-.051-.199-.164-.393-.348-.497-.169-.097-.386-.16-.58-.103-.581.172-1.161.343-1.74.516-.204.06-.382.162-.498.348a.798.798 0 0 0-.102.58c.051.2.164.393.348.498.169.096.386.159.58.103zM189.614 56.392c-1.912-.919-4.435.01-5.868 2.16a.781.781 0 0 0 1.301.865c1.103-1.653 2.844-2.12 3.89-1.618.78.374 1.123 1.252 1.234 1.613a.782.782 0 0 0 1.493-.46c-.214-.692-.765-1.943-2.048-2.56zM146.828 62.748a3.613 3.613 0 0 0-2.688.3c-1.362.753-2.073 2.307-1.77 3.867a.781.781 0 1 0 1.533-.3c-.171-.879.235-1.784.991-2.2a2.015 2.015 0 0 1 1.933.001v-1.67zM165.18 92.171c3.377.284 6.815-.607 9.552-2.624 2.018-1.487 3.637-3.47 4.794-5.688a17.61 17.61 0 0 0 .903-2.029c.104-.28-.117-.607-.387-.68-.31-.084-.577.105-.68.387-.075.202-.154.401-.237.6-.012.028.046-.106 0-.005l-.051.118a16.555 16.555 0 0 1-.359.763 17.351 17.351 0 0 1-1.562 2.559c-1.619 2.2-3.864 3.975-6.471 4.858-1.775.6-3.643.792-5.505.636-.299-.024-.554.272-.554.554 0 .32.254.528.554.554z"/><path fill="#23161a" d="M169.931 69.353a5.95 5.95 0 0 1-2.508.95c-3.834.52-7.462-2.807-8.087-7.416-.623-4.609 1.989-8.78 5.823-9.3 1.888-.256 3.773.395 5.309 1.833 1.493 1.397 2.478 3.38 2.776 5.585.475 3.51-.927 6.766-3.317 8.35zm-6.432-13.508c-1.897 1.257-3.005 3.934-2.614 6.833.509 3.755 3.347 6.483 6.329 6.078 2.98-.404 4.994-3.788 4.485-7.542-.251-1.85-1.067-3.501-2.296-4.654-1.186-1.111-2.619-1.617-4.032-1.427-.68.092-1.31.34-1.87.712zM152.382 72.563a4.629 4.629 0 0 1-1.951.74c-1.665.225-3.333-.473-4.698-1.966-1.294-1.415-2.168-3.395-2.463-5.578s.021-4.323.892-6.032c.917-1.8 2.342-2.918 4.007-3.144 1.665-.226 3.334.473 4.698 1.965 1.294 1.415 2.168 3.395 2.463 5.578.296 2.182-.021 4.323-.892 6.032-.532 1.045-1.236 1.859-2.056 2.403zm-5.301-13.933c-.6.398-1.123 1.011-1.529 1.809-.728 1.426-.989 3.242-.735 5.113s.989 3.55 2.068 4.733c1.009 1.103 2.194 1.627 3.337 1.472 1.143-.155 2.146-.974 2.825-2.306.726-1.426.988-3.242.734-5.113-.253-1.87-.986-3.55-2.068-4.733-1.008-1.103-2.194-1.627-3.337-1.471-.457.061-.894.23-1.295.496z"/><path fill="#5e401c" d="M156.533 57.212a26.34 26.34 0 0 1-1.062 4.134 26.839 26.839 0 0 1-.779 2.007c-.256.585-.567 1.148-.67 1.786-.188 1.15.531 2.095 1.645 2.32.464.093.932.1 1.403.135.3.021.742.056.932.215.324.27.768.354 1.105.04.278-.259.365-.833.04-1.105-.74-.616-1.589-.686-2.516-.74-.312-.017-.712-.044-.903-.152-.081-.046-.129-.053-.167-.199-.065-.252.058-.532.148-.761.474-1.216 1.036-2.377 1.436-3.626a29.02 29.02 0 0 0 .95-3.977c.071-.416-.356-.799-.741-.817-.465-.023-.748.325-.818.741z"/><path fill="#222849" d="M144.991 55.762a7.07 7.07 0 0 1 4.967-1.662c1.005.057 1.098-1.502.093-1.559a8.705 8.705 0 0 0-6.112 2.065c-.322.274-.33.798-.053 1.103.292.322.781.327 1.103.053zM162.123 52.82c2.002-.873 4.465-.824 6.442.192.374.193.836.146 1.079-.234.211-.328.145-.885-.234-1.08a9.334 9.334 0 0 0-7.995-.273c-.387.17-.526.688-.343 1.05.2.395.661.512 1.049.343zM165.649 61.07c.313 1.256-.11 2.444-.947 2.653-.838.209-1.77-.639-2.085-1.894-.313-1.256.11-2.443.947-2.652.838-.209 1.77.638 2.085 1.894zM150.52 62.318c.313 1.256-.11 2.443-.947 2.652-.838.209-1.77-.638-2.085-1.894-.313-1.255.11-2.443.947-2.652.838-.209 1.77.639 2.085 1.894z"/><path fill="#23161a" d="m160.074 59.238-6.822 1.557.404 1.771 6.822-1.557z"/><path fill="#fff" d="M158.586 75.99c1.234-.037 3.184-.28 5.219-1.38a11.252 11.252 0 0 0 1.876-1.271c1.425 3.148.587 6.186-.862 6.9-1.548.764-4.81-.615-6.233-4.248z"/><path fill="#2e3257" d="M132.135 192.305c-12.667-1.521-25.336-1.216-38.004-2.737-4.307-15.354-8.614-32.533-12.92-47.889a6.413 6.413 0 0 0-6.184-4.71H7.083c-4.237 0-7.31 4.035-6.185 8.118l12.358 44.481c-1.954 1.458-2.907 3.841-2.433 6.08.544 2.559 2.705 3.772 3.04 3.952h118.272c1.672-.345 2.911-1.73 3.04-3.345.146-1.816-1.142-3.547-3.04-3.952z"/><path fill="#1a213d" d="M99.3 194.432c0 1.679-.884 3.04-1.977 3.04s-1.977-1.361-1.977-3.04c0-1.678.884-3.04 1.977-3.04s1.977 1.362 1.977 3.04zM93.453 187.137H12.58l.675 2.433H94.13c-.226-.805-.451-1.619-.677-2.433z"/><path fill="#725022" d="M150.605 171.665c-1.649-.087-6.639-.347-10.469.326-13.596 2.393-23.875 18.562-21.852 20.949.899 1.061 4.792.059 16.066-6.828-1.113 1.181-1.345 2.929-.59 4.302.678 1.232 2.043 1.965 3.486 1.867a6.758 6.758 0 0 0 2.32 2.564c1.781 1.151 3.574 1.1 4.184 1.055 3.037 2.793 5.86 3.584 7.437 3.855 1.234.21 3.106.592 4.072-.457.33-.358.464-.782.525-1.102 2.573.172 5.145.346 7.717.519.062-8.329.123-16.658.186-24.986a63.867 63.867 0 0 0-13.08-2.063z"/><path fill="#5e401c" d="M134.605 186.297a6.598 6.598 0 0 1 4.819-3.877c.272-.053.426-.378.357-.63-.078-.284-.357-.41-.63-.357-2.389.463-4.463 2.113-5.43 4.349-.11.253-.075.549.184.699.215.127.59.072.7-.184zM143.316 184.773c-1.852.264-3.614 1.247-4.79 2.705a7.862 7.862 0 0 0-1.723 4.604c-.025.659.999.657 1.023 0 .054-1.38.573-2.856 1.496-3.969 1.075-1.296 2.604-2.116 4.266-2.353.274-.038.425-.388.357-.628-.083-.294-.354-.397-.631-.357zM148.248 187.445c-3.047 1.627-4.981 5.045-4.803 8.495.033.655 1.058.66 1.023 0-.161-3.11 1.548-6.143 4.296-7.611.58-.31.064-1.194-.516-.884zM151.245 194.137c.66.826 1.31 1.662 2.007 2.458.333.382.68.753 1.047 1.103.389.373.811.71 1.2 1.085.476.456 1.199-.267.723-.723-.378-.364-.789-.694-1.169-1.055-.378-.36-.735-.74-1.076-1.133-.697-.796-1.347-1.632-2.007-2.458-.172-.216-.544-.181-.723 0-.214.214-.173.508 0 .723z"/><path fill="#52b5b5" d="M234.597 0h-35.57a4.692 4.692 0 0 0-4.687 4.687v16.532a4.69 4.69 0 0 0 4.687 4.685h12.48v8.802l10.833-8.802h12.258a4.693 4.693 0 0 0 4.687-4.687V4.687A4.691 4.691 0 0 0 234.6 0z"/><g fill="#fff"><path d="M207.625 18.227h-.349c-.572 0-.819.164-.819.45v1.35c0 .286.245.45.819.45h.349c.573 0 .819-.164.819-.45v-1.35c0-.287-.246-.45-.819-.45zM208.178 5.989c-1.495 0-3.52.47-3.52 1.166 0 .287.451 1.043.655 1.043.307 0 1.249-.695 2.538-.695 1.698 0 2.579.695 2.579 2.128 0 1.023-.901 1.902-1.944 2.947-1.126 1.126-1.76 2.334-1.76 3.254 0 .287.184.471.614.471h.307c.491 0 .633-.143.675-.41.307-2.373 4.052-3.705 4.052-6.468 0-1.842-1.475-3.438-4.196-3.438zM216.631 18.227h-.349c-.572 0-.817.164-.817.45v1.35c0 .286.245.45.817.45h.349c.574 0 .819-.164.819-.45v-1.35c0-.287-.245-.45-.819-.45zM217.181 5.989c-1.494 0-3.519.47-3.519 1.166 0 .287.451 1.043.655 1.043.307 0 1.249-.695 2.538-.695 1.698 0 2.579.695 2.579 2.128 0 1.023-.901 1.902-1.944 2.947-1.126 1.126-1.76 2.334-1.76 3.254 0 .287.184.471.614.471h.307c.491 0 .633-.143.675-.41.307-2.373 4.051-3.705 4.051-6.468 0-1.842-1.474-3.438-4.196-3.438zM226.185 5.989c-1.494 0-3.519.47-3.519 1.166 0 .287.451 1.043.655 1.043.307 0 1.249-.695 2.538-.695 1.698 0 2.579.695 2.579 2.128 0 1.023-.901 1.902-1.944 2.947-1.126 1.126-1.76 2.334-1.76 3.254 0 .287.184.471.614.471h.307c.491 0 .633-.143.675-.41.306-2.373 4.051-3.705 4.051-6.468 0-1.842-1.474-3.438-4.196-3.438zM225.634 18.227h-.348c-.572 0-.819.164-.819.45v1.35c0 .286.245.45.819.45h.348c.574 0 .82-.164.82-.45v-1.35c0-.287-.246-.45-.82-.45z"/></g><path fill="#52b5b5" d="M112.67 4.103H78.019a4.57 4.57 0 0 0-4.566 4.564v16.106a4.57 4.57 0 0 0 4.566 4.564h21.67l10.553 8.575v-8.575h2.428a4.57 4.57 0 0 0 4.566-4.564V8.669a4.57 4.57 0 0 0-4.566-4.564z"/><path fill="#fff" d="M92.668 15.35h-.349c-.572 0-.819.164-.819.449v1.35c0 .287.245.451.82.451h.348c.572 0 .819-.164.819-.451v-1.35c0-.287-.246-.45-.82-.45zM96.617 15.35h-.349c-.572 0-.819.164-.819.449v1.35c0 .287.246.451.82.451h.348c.572 0 .82-.164.82-.451v-1.35c0-.287-.246-.45-.82-.45zM100.566 15.35h-.348c-.572 0-.82.164-.82.449v1.35c0 .287.246.451.82.451h.348c.572 0 .819-.164.819-.451v-1.35c0-.287-.245-.45-.819-.45z"/></g></svg>