<svg xmlns="http://www.w3.org/2000/svg" width="502" height="654" fill="none"><g clip-path="url(#a)"><path fill="#94D6DA" d="M495.2 640.29c4.36-18.41 6.68-37.61 6.68-57.35C501.88 446.01 390.87 335 253.94 335S6 446.01 6 582.94c0 19.74 2.32 38.94 6.68 57.35H495.2Z"/><path fill="#54BAC4" d="M371.57 450.52h-52.14c-8.22 0-14.88 6.66-14.88 14.88s6.66 14.88 14.88 14.88H479.7c-15.65-34.36-38.91-64.52-67.62-88.32h-110.5c-8.22 0-14.88 6.66-14.88 14.88s6.66 14.88 14.88 14.88h64.72c8.22 0 14.88 6.66 14.88 14.88 0 6.36-3.99 11.77-9.6 13.9l-.01.02ZM95.34 479.17h35.56c4.46 0 8.07-3.61 8.07-8.07 0-4.46-3.61-8.07-8.07-8.07H95.34c-4.46 0-8.07 3.61-8.07 8.07 0 4.46 3.61 8.07 8.07 8.07Zm65.75 56.17H10.58A249.687 249.687 0 0 0 6 582.94c0 13.87 1.17 27.47 3.36 40.72h133.87c8.22 0 14.88-6.66 14.88-14.88s-6.66-14.88-14.88-14.88H91.09c-5.61-2.13-9.6-7.54-9.6-13.9 0-8.22 6.66-14.88 14.88-14.88h64.72c8.22 0 14.88-6.66 14.88-14.88s-6.66-14.88-14.88-14.88v-.02Zm188.9 46.45h-35.56c-4.46 0-8.07 3.61-8.07 8.07 0 4.46 3.61 8.07 8.07 8.07h35.56c4.46 0 8.07-3.61 8.07-8.07 0-4.46-3.61-8.07-8.07-8.07Zm138.24-80.15H415.9c-4.46 0-8.07 3.61-8.07 8.07 0 4.46 3.61 8.07 8.07 8.07h15.41c4.46 0 8.07 3.61 8.07 8.07 0 3.05-1.7 5.71-4.2 7.08H405.9c-4.46 0-8.07 3.61-8.07 8.07 0 4.46 3.61 8.07 8.07 8.07h93.67a246.681 246.681 0 0 0-11.34-47.43Z"/><path fill="#228891" d="M325.47 609.48h-3.97v1h3.97v-1Zm-9.04-213.38-.92.39c.52 1.21 1.03 2.44 1.54 3.68l.93-.38c-.51-1.25-1.03-2.48-1.55-3.7v.01Zm9.04 136.84h-3.97v1h3.97v-1ZM308.84 453h-3.99v1h3.99v-1Zm16.12-34.43-.95.32c.42 1.25.84 2.52 1.26 3.79l.95-.31c-.42-1.28-.84-2.55-1.26-3.8Zm.49-61.88c-1.13-.73-2.26-1.44-3.39-2.14l-.52.85c1.13.69 2.25 1.4 3.37 2.12l.54-.84v.01Zm-2.74 58.43.94-.33c-.45-1.27-.89-2.53-1.35-3.77l-.94.34c.45 1.24.9 2.5 1.34 3.76h.01Zm-16.9-40.59-.87.5c.65 1.14 1.3 2.3 1.94 3.49l.88-.48c-.65-1.19-1.29-2.36-1.95-3.51Zm12.79-22.02c-1.16-.67-2.33-1.32-3.51-1.95l-.47.88c1.17.63 2.33 1.27 3.48 1.93l.5-.87v.01Zm2.31 54.75c-.48-1.26-.96-2.51-1.44-3.74l-.93.37c.48 1.23.96 2.47 1.44 3.73l.94-.35-.01-.01Zm-35.17 125.68h-3.97v1h3.97v-1Zm-2.17-186.7c-1.06-.89-2.12-1.72-3.17-2.49l-.59.81c1.03.75 2.08 1.57 3.12 2.44l.64-.77v.01Zm-2.25-8.14c-1.32-.28-2.64-.53-3.93-.75l-.17.99c1.28.22 2.59.47 3.9.74l.21-.98h-.01Zm-3.53 271.38h-3.97v1h3.97v-1Zm0-76.54h-3.97v1h3.97v-1ZM284.9 453h-3.99v1h3.99v-1Zm.84 156.48h-3.97v1h3.97v-1Zm23.84 0h-3.97v1h3.97v-1Zm1.85-224.32c-.6-1.21-1.19-2.41-1.8-3.58l-.89.46c.6 1.17 1.2 2.36 1.79 3.57l.9-.44v-.01Zm-37.9-45.61-.45.89c1.15.57 2.3 1.22 3.44 1.92l.52-.85c-1.16-.72-2.35-1.38-3.52-1.96h.01Zm36.05 193.39h-3.97v1h3.97v-1Zm-1.67-185.96-.42.91c1.2.56 2.4 1.13 3.59 1.73l.45-.89c-1.2-.6-2.41-1.18-3.62-1.74v-.01ZM276.93 453h-3.99v1h3.99v-1Zm47.87 0h-3.99v1h3.99v-1Zm24.51 156.48h-3.97v1h3.97v-1Zm1.17-232.79c-.97-.93-1.94-1.85-2.92-2.75l-.68.74c.97.9 1.94 1.81 2.91 2.73l.69-.72ZM348.73 453h-3.99v1h3.99v-1Zm-1.98 63.14c-.18-1.33-.37-2.65-.55-3.96l-.99.14c.19 1.31.37 2.63.55 3.96l.99-.14Zm-86.3 35.76h-1v4h1v-4Zm90.66 4.02c-.11-1.33-.23-2.66-.34-3.99l-1 .09c.12 1.33.23 2.65.34 3.98l1-.08Zm-5.49-47.71-.6-3.96-.99.15c.2 1.31.4 2.63.6 3.95l.99-.15v.01Zm.67 12.02.51 3.97.99-.12-.51-3.97-.99.13v-.01Zm5.45 43.68c-.1-1.33-.2-2.67-.31-3.99l-1 .08c.1 1.33.21 2.66.3 3.99l1-.07.01-.01Zm-2.13-23.93-.42-3.98-.99.11c.14 1.32.29 2.65.42 3.98l.99-.1v-.01Zm-.3-7.04h-3.97v1h3.97v-1Zm-.57-.92c-.15-1.33-.31-2.65-.47-3.98l-.99.12c.16 1.32.31 2.64.47 3.97l.99-.12v.01Zm7.97-79.02h-3.99v1h3.99v-1Zm.55 79.94h-3.97v1h3.97v-1ZM316.82 453h-3.99v1h3.99v-1Zm.7 156.48h-3.97v1h3.97v-1Zm-2.7-217.05c-.55-1.23-1.11-2.45-1.67-3.65l-.91.42c.56 1.19 1.11 2.4 1.66 3.63l.91-.41.01.01Zm38.95 211.45-.12-4-1 .03.12 4 1-.03Zm-.99-24c-.07-1.34-.15-2.67-.23-4l-1 .06c.08 1.33.16 2.66.23 3.99l1-.05Zm-.48-7.99-.27-3.99-1 .07.27 3.99 1-.06v-.01Zm1.21 23.99c-.05-1.34-.1-2.67-.16-4l-1 .04c.05 1.33.11 2.66.16 4l1-.04Zm-.87-215.68c.94.94 1.87 1.89 2.79 2.85l.72-.69c-.93-.97-1.86-1.92-2.8-2.87l-.71.71Zm.54 207.68c-.06-1.34-.12-2.67-.19-4l-1 .05c.07 1.33.13 2.66.19 3.99l1-.04Zm-35.66-54.94h-3.97v1h3.97v-1ZM260.45 351.9h-1v4h1v-4Zm0 80h-1v4h1v-4Zm0-8h-1v4h1v-4Zm0 16h-1v4h1v-4Zm.52 13.1h-3.99v1h3.99v-1Zm-.52-5.1h-1v4h1v-4Zm0-32h-1v4h1v-4Zm0 104h-1v4h1v-4Zm0-136h-1v4h1v-4Zm0-8h-1v4h1v-4Zm0 32h-1v4h1v-4Zm0-8h-1v4h1v-4Zm0-8h-1v4h1v-4Zm0-24h-1v4h1v-4Zm0 96h-1v4h1v-4Zm0-8h-1v4h1v-4Zm0 16h-1v4h1v-4Zm0 56h-1v4h1v-4Zm0 8h-1v4h1v-4Zm0 8h-1v4h1v-4Zm0-64h-1v4h1v-4Zm0 24h-1v4h1v-4Zm0 8h-1v4h1v-4Zm0-16h-1v4h1v-4Zm0-8h-1v4h1v-4Zm9.4 121.58h-3.97v1h3.97v-1Zm31.78 0h-3.97v1h3.97v-1ZM300.86 453h-3.99v1h3.99v-1Zm-1.43-88.69c-.76-1.12-1.55-2.22-2.32-3.27l-.8.59c.77 1.05 1.55 2.14 2.3 3.25l.82-.56v-.01Zm2.2 168.63h-3.97v1h3.97v-1Zm2.62-187.59c-1.23-.53-2.47-1.03-3.72-1.51l-.36.93c1.23.48 2.46.98 3.69 1.5l.39-.92Zm-7.48-2.91c-1.26-.45-2.53-.87-3.81-1.28l-.3.95c1.26.4 2.52.82 3.77 1.27l.33-.94h.01Zm7.01 28.63c-.7-1.16-1.41-2.3-2.12-3.41l-.84.54c.71 1.1 1.41 2.23 2.11 3.38l.86-.52-.01.01ZM292.88 453h-3.99v1h3.99v-1Zm-32.43-93.1h-1v4h1v-4Zm28.24-7.44.72-.69c-.94-.99-1.89-1.94-2.84-2.84l-.69.72c.94.89 1.88 1.83 2.81 2.81Zm4.99 180.48h-3.97v1h3.97v-1Zm0 76.54h-3.97v1h3.97v-1Zm.99-251.63c-.85-1.07-1.71-2.11-2.56-3.1l-.76.65c.84.97 1.69 2 2.54 3.06l.78-.62v.01ZM260.45 615.9h-1v4h1v-4Zm8.89-278.65c1.32.13 2.65.29 3.95.48l.14-.99c-1.14-.16-2.3-.29-3.45-.42l-.54-.03-.1.96Zm-8.89 273.23h1.45v-1h-1.45v-1.58h-1v1.58h-1.52v1h1.52v1.42h1v-1.42ZM344.4 500.3c-.21-1.32-.43-2.64-.65-3.95l-.99.16c.22 1.31.43 2.62.64 3.95l.99-.16h.01Zm-83.95-156.4h-1v4h1v-4Zm0 288h-1v4h1v-4Zm8.5-178.9h-3.99v1h3.99v-1Zm.89-115.07c-1.27-.48-2.57-.89-3.85-1.22l-.25.97c1.24.32 2.5.72 3.74 1.19l.35-.94h.01Zm-9.39 285.97h-1v4h1v-4Zm9.4-90.96h-3.97v1h3.97v-1Zm19.27-192.93c-1.29-.36-2.59-.71-3.88-1.02l-.24.97c1.28.31 2.57.65 3.85 1.01l.27-.96Zm61.28 207.94c-.13-1.33-.25-2.66-.38-3.98l-1 .1c.13 1.32.26 2.65.38 3.98l1-.09v-.01Zm76.01-23.82.97-.23c-.31-1.3-.62-2.6-.94-3.89l-.97.24c.32 1.29.63 2.58.94 3.88Zm2.36 8.81h-3.97v1h3.97v-1Zm-5.3-20.43c.34 1.28.68 2.57 1.02 3.86l.97-.25c-.33-1.3-.67-2.59-1.02-3.87l-.96.26h-.01Zm5.3 96.97h-3.97v1h3.97v-1Zm-10.01-116.43c-.41-1.27-.83-2.54-1.26-3.8l-.95.32c.42 1.26.84 2.52 1.25 3.79l.95-.31h.01Zm-19.59-48.2-.89.45c.59 1.19 1.18 2.38 1.76 3.58l.9-.44c-.58-1.21-1.17-2.41-1.77-3.6v.01Zm40.14 192.05-1-.02c-.02 1.33-.05 2.67-.08 4l1 .03c.03-1.33.06-2.67.08-4v-.01ZM420.53 453h-3.99v1h3.99v-1Zm18.84 174.08c0-1.34-.02-2.67-.03-4h-1c.02 1.34.03 2.67.03 4h1Zm-9.56-87.34.98-.19c-.26-1.31-.52-2.62-.8-3.93l-.98.2c.27 1.3.53 2.61.79 3.92h.01Zm-2.49-11.72c.29 1.29.58 2.59.87 3.9l.98-.21c-.28-1.31-.57-2.61-.87-3.91l-.97.22h-.01Zm1.19-75.02h-3.99v1h3.99v-1Zm10.86 175.9h-1c0 1.33 0 2.67-.02 4h1c.01-1.33.02-2.66.02-4Zm-27.3-154.73-.93.36c.48 1.24.95 2.48 1.42 3.74l.94-.35c-.47-1.25-.94-2.5-1.42-3.75h-.01Zm.81 58.77h-3.97v1h3.97v-1Zm-6.24-69.51.92-.39c-.52-1.23-1.05-2.46-1.59-3.68l-.92.4c.54 1.21 1.06 2.44 1.59 3.67Zm-3.21-7.32.91-.41c-.26-.57-.52-1.13-.79-1.7h1.02v-1h-1.49c-.14-.31-.29-.62-.43-.93l-.91.42.24.51h-1.4v1h1.86c.33.7.65 1.41.98 2.12l.01-.01Zm9.45 153.37h-3.97v1h3.97v-1Zm2.38-123.7.95-.33c-.44-1.26-.89-2.52-1.34-3.78l-.94.34c.45 1.25.89 2.5 1.33 3.77Zm4.71 11.09-.96.3c.4 1.27.79 2.54 1.17 3.82l.96-.29c-.39-1.28-.78-2.56-1.18-3.83h.01Zm.86 36.07h-3.97v1h3.97v-1Zm0 76.54h-3.97v1h3.97v-1Zm-11.15-138.67.93-.37c-.5-1.24-1-2.48-1.5-3.71l-.92.38c.51 1.23 1.01 2.46 1.5 3.7h-.01Zm2.87-17.81h-3.99v1h3.99v-1Zm9.87 55.66.96-.27c-.36-1.29-.73-2.57-1.1-3.85l-.96.28c.37 1.28.74 2.56 1.09 3.84h.01ZM452.44 453h-3.99v1h3.99v-1Zm-7.77 156.48h-3.97v1h3.97v-1Zm-5.4 9.61c-.03-1.34-.06-2.67-.1-4l-1 .03c.04 1.33.07 2.66.1 4l1-.02v-.01Zm5.4-86.15h-3.97v1h3.97v-1Zm-.2-79.94h-3.99v1h3.99v-1Zm16.09 79.94h-3.97v1h3.97v-1Zm0 76.54h-3.97v1h3.97v-1ZM258 336.66c.48 0 .96.03 1.45.06v3.18h1v-3.11c.49.04.97.08 1.45.15l.02-.19c1.14.04 2.29.09 3.44.17l.06-.85c-2.46-.11-4.94-.18-7.42-.22v.81ZM460.42 453h-3.99v1h3.99v-1Zm-7.81 156.48h-3.97v1h3.97v-1Zm-19-54.16c-.21-1.32-.43-2.64-.65-3.95l-.99.17c.22 1.31.44 2.62.65 3.94l.99-.16Zm19-22.38h-3.97v1h3.97v-1Zm-14.43 62.15c-.09-1.33-.2-2.67-.3-3.99l-1 .08c.11 1.33.21 2.65.3 3.98l1-.07Zm-1.01-11.97-1 .1c.13 1.32.25 2.65.37 3.98l1-.09c-.12-1.33-.24-2.66-.37-3.99Zm1.51 19.96c-.07-1.33-.15-2.67-.23-4l-1 .06c.08 1.33.16 2.66.23 3.99l1-.05Zm-8.11-59.41c.25 1.31.49 2.62.72 3.93l.98-.18c-.24-1.32-.48-2.63-.72-3.94l-.98.19Zm6.15 65.81h-3.97v1h3.97v-1Zm2.32 1.6c-.05-1.34-.1-2.67-.17-4l-1 .04c.06 1.33.11 2.66.16 3.99l1-.04.01.01Zm-3.18-39.9c-.16-1.33-.33-2.65-.51-3.97l-.99.13.51 3.96.99-.12Zm-2.62-11.75c.2 1.31.39 2.63.58 3.95l.99-.14c-.19-1.33-.38-2.65-.58-3.96l-.99.15ZM436.49 453h-3.99v1h3.99v-1Zm.28 126.14c-.14-1.33-.29-2.66-.44-3.98l-.99.11c.15 1.32.3 2.64.44 3.97l.99-.11v.01Zm-.05-46.2h-3.97v1h3.97v-1Zm-64.94-132.32c-.82-1.07-1.64-2.12-2.47-3.16l-.78.62c.82 1.04 1.64 2.09 2.46 3.15l.79-.61Zm-39.77 45.07.97-.25c-.34-1.3-.69-2.59-1.04-3.87l-.96.26c.35 1.28.69 2.56 1.03 3.86Zm33.19 87.25h-3.97v1h3.97v-1Zm-7.94 76.54h-3.35l-.03-1.6-1 .02c.03 1.33.06 2.66.08 4l1-.02c0-.47-.02-.93-.03-1.4h3.33v-1Zm-25.2-248.25c-1.09-.79-2.18-1.56-3.28-2.31l-.57.82c1.09.75 2.18 1.52 3.26 2.3l.59-.81Zm1.36 248.25h-3.97v1h3.97v-1ZM332.77 453h-3.99v1h3.99v-1Zm-2.86-15.02.96-.27c-.37-1.29-.73-2.58-1.11-3.85l-.96.28c.37 1.27.74 2.55 1.1 3.84h.01Zm36.88-43.63c-.85-1.04-1.71-2.06-2.58-3.07l-.76.65c.86 1.01 1.72 2.03 2.56 3.06l.77-.63.01-.01ZM354.08 636.9h-1c-.01 1.33-.03 2.66-.04 3.99h1c.02-1.32.03-2.65.04-3.99Zm.03-8h-1v4h1v-4Zm-.09-13.02-1 .02c.02 1.33.04 2.66.05 4h1c-.01-1.35-.03-2.68-.05-4.01v-.01Zm.08 8h-1c0 1.34.01 2.67.01 4h1c0-1.34 0-2.67-.01-4Zm-27.62-197.39c.4 1.26.79 2.54 1.18 3.82l.96-.29c-.39-1.29-.78-2.56-1.18-3.83l-.96.3Zm6.94 106.45h-3.97v1h3.97v-1Zm7.94 0h-3.97v1h3.97v-1Zm-.43-52.36-.98.19c.25 1.3.5 2.61.74 3.93l.98-.18c-.25-1.32-.49-2.63-.74-3.93v-.01Zm3.65-109.32c-1.01-.89-2.02-1.76-3.04-2.62l-.64.77c1.01.85 2.02 1.72 3.02 2.6l.66-.75Zm-6.05 97.55c-.28-1.31-.57-2.62-.85-3.91l-.98.22c.29 1.29.57 2.6.85 3.91l.98-.21v-.01Zm2.83 140.67h-3.97v1h3.97v-1ZM340.75 453h-3.99v1h3.99v-1Zm-3.95 7.99c-.3-1.31-.6-2.61-.91-3.9l-.97.23c.31 1.29.61 2.59.91 3.89l.97-.22Zm-1.85-7.79c-.32-1.3-.64-2.6-.97-3.88l-.97.25c.33 1.28.65 2.58.97 3.88l.97-.24v-.01Zm-.28-88.78c1.05.8 2.1 1.62 3.14 2.46l.62-.78c-1.05-.84-2.1-1.66-3.16-2.47l-.61.79h.01Zm4.51 112.43.98-.2c-.26-1.32-.53-2.62-.8-3.92l-.98.2c.27 1.3.53 2.6.8 3.92ZM396.6 453h-3.99v1h3.99v-1Zm-13.28-36-.84.54c.72 1.11 1.44 2.24 2.14 3.37l.85-.53c-.71-1.14-1.43-2.26-2.15-3.38Zm5.3 36h-3.99v1h3.99v-1Zm.42 156.48h-3.97v1h3.97v-1Zm0-76.54h-3.97v1h3.97v-1Zm6.45-95.21-.88.47a573 573 0 0 1 1.86 3.54l.89-.46c-.62-1.19-1.24-2.37-1.86-3.55h-.01Zm1.5 171.75h-3.97v1h3.97v-1Zm7.95-76.54h-3.97v1h3.97v-1Zm0 76.54h-3.97v1h3.97v-1Zm-7.95-76.54h-3.97v1h3.97v-1Zm-3.41-98.74c-.65-1.17-1.3-2.34-1.96-3.5l-.87.49c.66 1.15 1.3 2.32 1.95 3.49l.88-.48Zm-6.01-10.4-.86.52c.69 1.13 1.37 2.28 2.04 3.43l.86-.51c-.68-1.16-1.36-2.3-2.05-3.44h.01ZM365.2 609.48h-3.97v1h3.97v-1Zm7.95 0h-3.97v1h3.97v-1Zm0-76.54h-3.97v1h3.97v-1Zm7.95 76.54h-3.97v1h3.97v-1Zm-19.52-221.23c-.89-1-1.79-2-2.69-2.97l-.73.68c.9.97 1.79 1.96 2.68 2.96l.75-.66-.01-.01Zm-18.5 104.15c-.23-1.32-.46-2.63-.69-3.94l-.98.18c.23 1.31.47 2.62.69 3.94l.99-.17-.01-.01Zm21.61-39.4h-3.99v1h3.99v-1Zm15.95 0h-3.99v1h3.99v-1Zm.46 79.94h-3.97v1h3.97v-1Zm-2.24-122.6-.82.57c.75 1.09 1.5 2.19 2.24 3.3l.83-.55c-.75-1.12-1.5-2.22-2.25-3.31v-.01Zm-6.2 42.66h-3.99v1h3.99v-1Zm3.08-45.35.81-.58a269.7 269.7 0 0 0-2.36-3.24l-.8.6c.79 1.06 1.57 2.14 2.35 3.23v-.01Zm-257.9 34.26c-.61 1.18-1.21 2.38-1.81 3.58l.89.45c.59-1.2 1.19-2.38 1.8-3.56l-.89-.46.01-.01ZM101.41 453h-3.99v1h3.99v-1Zm-6.08 44.55.96.3c.4-1.27.8-2.54 1.21-3.81l-.95-.31c-.41 1.27-.81 2.54-1.21 3.82h-.01Zm15.56-41.2c-.55 1.21-1.09 2.43-1.62 3.66l.92.4c.53-1.22 1.08-2.44 1.62-3.65l-.91-.41h-.01Zm-7.92 153.13H99v1h3.97v-1Zm7.94-76.54h-3.97v1h3.97v-1Zm-9.56-50.25c.45-1.26.91-2.51 1.37-3.75l-.94-.35c-.46 1.25-.92 2.5-1.37 3.76l.94.34Zm-1.32 3.77-.95-.33c-.43 1.26-.86 2.52-1.29 3.79l.95.32c.42-1.27.85-2.53 1.29-3.78Zm9.36-33.46h-3.99v1h3.99v-1Zm9.47 79.94h-3.97v1h3.97v-1Zm-10.26-68.86-.92-.39c-.52 1.23-1.03 2.46-1.54 3.7l.93.38c.51-1.24 1.02-2.47 1.53-3.69Zm-5.41 10.76.93.36c.48-1.25.96-2.49 1.45-3.72l-.93-.37c-.49 1.24-.97 2.48-1.45 3.73Zm7.72 134.64h-3.97v1h3.97v-1Zm-33.88-9.68 1 .06c.08-1.33.17-2.66.26-3.99l-1-.07c-.09 1.33-.18 2.66-.26 4Zm-.42 8 1 .04c.06-1.33.12-2.66.19-3.99l-1-.05c-.07 1.33-.13 2.66-.19 4Zm2.3-19.9-1-.09c-.12 1.33-.22 2.66-.33 3.99l1 .08c.1-1.33.21-2.66.33-3.98Zm39.95 21.58h-3.97v1h3.97v-1Zm-39.19-29.53-.99-.1c-.14 1.32-.27 2.65-.4 3.98l1 .1c.13-1.33.26-2.65.4-3.98h-.01Zm.9-7.94-.99-.12c-.16 1.32-.32 2.65-.47 3.98l.99.11c.15-1.33.3-2.65.47-3.97Zm-3.34 47.81-1-.02c-.03 1.33-.04 2.67-.06 4h1c.01-1.32.03-2.66.06-3.98Zm-1.08 9.08v2.92h1v-4h-1v1.08Zm26.82-95.96H99v1h3.97v-1Zm-25.7 106.84c-.03-1.33-.05-2.65-.07-3.98h-1c.02 1.35.04 2.68.07 4.01l1-.02v-.01Zm.18-27.95-1-.04c-.05 1.33-.09 2.67-.13 4l1 .03c.04-1.33.08-2.67.13-3.99Zm1.68-2.35h-3.97v1h3.97v-1Zm55.62 0h-3.97v1h3.97v-1Zm15.9-76.54h-3.97v1h3.97v-1Zm0 76.54h-3.97v1h3.97v-1ZM141.3 453h-3.99v1h3.99v-1Zm1.4 79.94h-3.97v1h3.97v-1Zm-4.15-125.29c-.77 1.08-1.54 2.18-2.3 3.29l.82.57c.76-1.1 1.52-2.19 2.29-3.27l-.81-.58v-.01ZM117.36 454v-1h-3.83c.54-1.16 1.09-2.32 1.65-3.47l-.9-.43c-.58 1.2-1.15 2.41-1.71 3.62l.81.38v.91h3.99l-.01-.01Zm41.23 155.48h-3.97v1h3.97v-1ZM148.27 394.9c-.84 1.03-1.68 2.07-2.51 3.12l.79.62c.83-1.05 1.66-2.08 2.5-3.11l-.77-.63h-.01Zm10.32 138.04h-3.97v1h3.97v-1Zm.29-150.06c-.92.96-1.83 1.94-2.74 2.93l.74.68c.9-.99 1.81-1.96 2.72-2.92l-.72-.69Zm-9.6 70.12h-3.99v1h3.99v-1Zm-6.58 156.48h-3.97v1h3.97v-1ZM125.34 453h-3.99v1h3.99v-1Zm-3.75-18.17c-.64 1.17-1.27 2.34-1.9 3.53l.88.47c.62-1.18 1.25-2.35 1.89-3.52l-.88-.48h.01Zm3.95-6.98c-.67 1.15-1.34 2.31-2 3.48l.87.49c.66-1.16 1.32-2.32 1.99-3.46l-.86-.5v-.01Zm1.27 105.09h-3.97v1h3.97v-1Zm0 76.54h-3.97v1h3.97v-1Zm-45.2-45.39-.99-.14-.54 3.97.99.13c.17-1.32.35-2.64.54-3.96ZM133.32 453h-3.99v1h3.99v-1Zm-3.65-32.01c-.7 1.13-1.4 2.27-2.09 3.42l.86.52c.69-1.14 1.38-2.28 2.08-3.4l-.85-.53v-.01Zm5.08 111.95h-3.97v1h3.97v-1Zm-.74-118.69c-.74 1.11-1.47 2.23-2.19 3.35l.84.54c.72-1.12 1.45-2.24 2.18-3.34l-.83-.55Zm9.29-13.06c-.81 1.06-1.61 2.13-2.4 3.21l.8.59c.79-1.08 1.59-2.14 2.39-3.19l-.79-.61ZM15.56 532.94h-3.97v1h3.97v-1ZM260.45 639.9h-1v1.2h1v-1.2ZM23.5 532.94h-3.97v1h3.97v-1Zm7.95 76.54h-3.97v1h3.97v-1Zm122.01-220.69c-.88 1-1.75 2.01-2.62 3.03l.76.65c.86-1.02 1.73-2.02 2.61-3.02l-.75-.66ZM7.61 610.48v-1h-.14c.03.33.07.67.1 1h.04Zm7.95-1h-3.97v1h3.97v-1Zm7.94 0h-3.97v1h3.97v-1Zm23.84 0h-3.97v1h3.97v-1Zm0-76.54h-3.97v1h3.97v-1ZM45.56 454v-1h-2.19c-.21.33-.42.67-.62 1h2.81ZM39.4 609.48h-3.97v1h3.97v-1Zm0-76.54h-3.97v1h3.97v-1Zm-7.95 0h-3.97v1h3.97v-1Zm460.9 0h-3.97v1h3.97v-1ZM464.41 453v1h.96c-.21-.33-.42-.67-.62-1h-.34Zm27.94 156.48h-3.97v1h3.97v-1Zm5.97 0h-2v1h2v-1Zm-2-75.54h.67l-.21-1h-.46v1Zm-11.92 75.54h-3.97v1h3.97v-1Zm0-76.54h-3.97v1h3.97v-1Zm-15.89 0h-3.97v1h3.97v-1Zm7.94 76.54h-3.97v1h3.97v-1Zm-7.94 0h-3.97v1h3.97v-1Zm7.94-76.54h-3.97v1h3.97v-1ZM53.54 453h-3.99v1h3.99v-1Zm41.48 79.94h-3.97v1h3.97v-1Zm-6.08-8.12-.97-.23c-.31 1.3-.61 2.6-.9 3.9l.97.22c.29-1.3.59-2.6.9-3.89Zm1.91-7.76-.97-.25c-.33 1.29-.66 2.58-.97 3.88l.97.24c.32-1.3.64-2.59.97-3.88v.01Zm4.17 92.42h-3.97v1h3.97v-1Zm-2.11-100.14-.96-.27c-.36 1.28-.71 2.57-1.05 3.86l.97.26c.34-1.29.69-2.57 1.05-3.85h-.01Zm.52-56.34h-3.99v1h3.99v-1Zm-38.14 79.94h-3.97v1h3.97v-1Zm28.82 15.36-.98-.17c-.23 1.31-.46 2.63-.68 3.95l.99.17c.22-1.32.45-2.63.68-3.94l-.01-.01Zm2.97 61.18h-3.97v1h3.97v-1Zm-1.51-69.04-.98-.19c-.26 1.31-.51 2.62-.75 3.93l.98.18c.25-1.31.5-2.62.75-3.92Zm1.51-7.32c.04-.17.07-.33.11-.5l-.98-.21c-.04.18-.07.36-.11.54h-2.99v1h2.78c-.17.79-.34 1.59-.5 2.38l.98.2c.18-.86.36-1.72.55-2.58h.17v-.82l-.01-.01ZM85.45 453h-3.99v1h3.99v-1Zm-23.93 0h-3.99v1h3.99v-1Zm1.72 79.94h-3.97v1h3.97v-1Zm19.55 23.24-.99-.16c-.21 1.31-.41 2.63-.61 3.96l.99.15c.2-1.32.4-2.64.61-3.95Zm-19.55 53.3h-3.97v1h3.97v-1Zm-7.95 0h-3.97v1h3.97v-1Zm38.88-108.1c-.38 1.28-.76 2.56-1.13 3.84l.96.28c.37-1.28.75-2.56 1.13-3.83l-.96-.29Zm-15.04 31.56h-3.97v1h3.97v-1ZM77.47 453h-3.99v1h3.99v-1Zm-6.29 79.94h-3.97v1h3.97v-1ZM69.5 453h-3.99v1h3.99v-1Zm1.68 156.48h-3.97v1h3.97v-1Zm139.43-263.85c-1.22.53-2.44 1.08-3.66 1.65l.42.91c1.21-.57 2.42-1.11 3.63-1.64l-.4-.92h.01ZM237.04 453h-3.99v1h3.99v-1Zm-3.53-114.75c-1.28.28-2.59.58-3.91.91l.24.97c1.3-.33 2.6-.63 3.87-.9l-.21-.98h.01Zm-1.19 7.69c-1.01.83-2.02 1.73-3.02 2.66l.68.73c.98-.92 1.98-1.8 2.97-2.62l-.64-.77h.01Zm5.74 263.54h-3.97v1h3.97v-1Zm-7.95-76.54h-3.97v1h3.97v-1Zm7.95 0h-3.97v1h3.97v-1Zm-15.89 0h-3.97v1h3.97v-1Zm7.94 76.54h-3.97v1h3.97v-1Zm-4.1-268.31-.28-.96c-1.29.37-2.57.76-3.85 1.17l.31.95c1.27-.41 2.54-.8 3.82-1.17v.01Zm12.86.09c-1.12.68-2.25 1.42-3.36 2.22l.58.81c1.09-.78 2.2-1.51 3.3-2.17l-.52-.86Zm-11.71 10.85-.72-.69c-.91.94-1.82 1.94-2.71 2.96l.75.66c.88-1.01 1.78-2 2.68-2.93Zm1.9 100.89h-3.99v1h3.99v-1Zm17.06-115.23c-1.23.45-2.48.98-3.71 1.57l.44.9c1.2-.58 2.42-1.1 3.62-1.53l-.34-.94h-.01Zm7.83 271.71h-3.97v1h3.97v-1ZM252.99 453H249v1h3.99v-1Zm.96 79.94h-3.97v1h3.97v-1Zm-63.23-114.83.95.32c.43-1.27.87-2.53 1.3-3.78l-.94-.33c-.44 1.25-.88 2.51-1.31 3.79Zm6.08-64.37-.5-.87c-1.15.67-2.3 1.36-3.44 2.06l.53.85c1.13-.7 2.27-1.38 3.42-2.05l-.01.01Zm49.21 179.2h-3.97v1h3.97v-1Zm-1-79.94h-3.99v1h3.99v-1Zm4.37-117.03c-1.31.1-2.66.22-4 .36l.11.99c1.33-.14 2.66-.27 3.96-.36l-.07-1v.01Zm-3.37 273.51h-3.97v1h3.97v-1Zm-23.84 0h-3.97v1h3.97v-1Zm19.23-272.65c-1.32.19-2.65.41-3.96.64l.18.98c1.3-.23 2.62-.45 3.93-.64l-.14-.99-.01.01Zm-32.53 41.26-.88-.48c-.63 1.16-1.26 2.34-1.88 3.54l.89.46c.62-1.2 1.24-2.37 1.87-3.52Zm-9.08-27.18.48.88c1.17-.64 2.35-1.25 3.53-1.85l-.45-.89c-1.19.6-2.38 1.22-3.55 1.86h-.01Zm53.59-15.1v.16c-1.13.15-2.28.36-3.41.63l.23.97c1.28-.31 2.58-.54 3.87-.69l-.02-.15c1.11-.04 2.22-.07 3.34-.07v-.82c-1.12-.01-2.23-.04-3.34-.04h-.67v.01Zm-48.17 49.36-.9-.44c-.58 1.19-1.16 2.39-1.74 3.61l.9.43c.57-1.22 1.15-2.42 1.73-3.6h.01Zm56.69 147.77h-3.97v1h3.97v-1Zm-61.7-136.89c.53-1.23 1.07-2.45 1.61-3.66l-.91-.41c-.54 1.21-1.08 2.43-1.61 3.67l.92.39-.01.01Zm60.25 203.85h-1v4h1v-4Zm0-24h-1v4h1v-4Zm0-8h-1v4h1v-4ZM205.12 453h-3.99v1h3.99v-1Zm55.33 130.9h-1v4h1v-4Zm0 8h-1v4h1v-4Zm-39.3-234.43c-.81 1.01-1.64 2.08-2.45 3.18l.8.6c.81-1.09 1.62-2.15 2.43-3.15l-.78-.63Zm-6.93 175.47h-3.97v1h3.97v-1Zm0 76.54h-3.97v1h3.97v-1Zm2.96-245-.82-.57c-.75 1.08-1.49 2.2-2.23 3.34l.84.54c.73-1.13 1.47-2.24 2.21-3.31Zm.89-21.8c-1.26.45-2.51.92-3.75 1.42l.37.93c1.24-.49 2.48-.96 3.72-1.41l-.34-.94ZM221.08 453h-3.99v1h3.99v-1Zm-26.76-42.1c.46-1.26.93-2.51 1.4-3.74l-.94-.36c-.47 1.24-.94 2.49-1.4 3.75l.94.34v.01ZM213.1 453h-3.99v1h3.99v-1Zm-6.83 79.94h-3.97v1h3.97v-1Zm0 76.54h-3.97v1h3.97v-1Zm6.58-238.31-.85-.52c-.69 1.13-1.37 2.28-2.04 3.45l.87.5c.67-1.17 1.35-2.31 2.03-3.43h-.01Zm47.6 188.73h-1v4h1v-4ZM157.26 453h-3.99v1h3.99v-1Zm17.23 156.48h-3.97v1h3.97v-1Zm-3.92-105.71.99.15c.21-1.32.41-2.64.62-3.95l-.99-.16c-.21 1.31-.42 2.63-.63 3.96h.01Zm2.93-11.68-.98-.17c-.23 1.31-.45 2.62-.67 3.95l.99.16c.22-1.32.44-2.63.67-3.94h-.01Zm-6.07-117.66.68.73c.98-.91 1.96-1.8 2.95-2.68l-.66-.75c-1 .88-1.99 1.78-2.97 2.7Zm2.4 141.36-.99-.14c-.18 1.32-.36 2.64-.53 3.97l.99.13c.17-1.33.35-2.65.53-3.96Zm1.13-7.91-.99-.15c-.2 1.32-.39 2.64-.58 3.96l.99.14c.19-1.32.38-2.64.58-3.96v.01Zm2.25-54.88h-3.99v1h3.99v-1Zm-10.63 158.42-1-.02c-.03 1.33-.05 2.67-.07 4h1c.02-1.32.04-2.65.07-3.98Zm3.96-1.94h-3.97v1h3.97v-1Zm2.24-85.76-.99-.12c-.17 1.32-.33 2.64-.49 3.97l.99.12c.16-1.33.32-2.65.49-3.97Zm-.95 7.94-.99-.11-.45 3.98.99.11.45-3.97v-.01Zm-.88 7.94-.99-.1c-.14 1.32-.27 2.65-.41 3.98l1 .1c.13-1.33.27-2.66.41-3.98h-.01Zm9.49-63.23-.98-.2c-.26 1.3-.52 2.61-.77 3.93l.98.19c.25-1.31.51-2.62.77-3.92Zm3.36-15.63-.97-.22c-.3 1.29-.59 2.6-.88 3.91l.98.22c.29-1.31.58-2.61.88-3.9l-.01-.01Zm2.63 148.74h-3.97v1h3.97v-1Zm1.21-164.25-.97-.26c-.34 1.28-.68 2.58-1.01 3.88l.97.25c.33-1.3.67-2.59 1.01-3.87Zm-.76-83.57c-1.07.79-2.14 1.59-3.21 2.41l.61.79c1.06-.81 2.12-1.61 3.19-2.39l-.59-.81Zm-8.39 171.28h-3.97v1h3.97v-1Zm7.94 0h-3.97v1h3.97v-1Zm-8.49-48.9c-.25 1.31-.49 2.62-.72 3.94l.98.18c.24-1.32.48-2.63.72-3.93l-.98-.18v-.01ZM197.15 453h-3.99v1h3.99v-1Zm-20-85.67-.63-.78c-1.04.84-2.07 1.69-3.09 2.56l.65.76c1.02-.86 2.04-1.71 3.07-2.54Zm.92 101.22-.98-.21c-.28 1.3-.55 2.61-.83 3.92l.98.2c.27-1.31.55-2.61.83-3.91Zm-15.6 170.84c-.02-1.33-.03-2.66-.04-3.99h-1c0 1.34.02 2.67.04 4h1v-.01ZM177.2 454h3.18c-.21.87-.43 1.74-.64 2.62l.97.23c.31-1.3.62-2.6.94-3.88l-.97-.24c-.02.09-.04.18-.07.27h-3.42v1h.01Zm13.18 155.48h-3.97v1h3.97v-1Zm-27.97 21.93v-4h-1v4h1Zm27.97-98.47h-3.97v1h3.97v-1Zm-3.53-99.26c.38-1.29.76-2.56 1.14-3.83l-.96-.29c-.39 1.27-.77 2.55-1.15 3.84l.96.28h.01Zm2.6-11.76c-.41 1.26-.82 2.53-1.22 3.81l.95.3c.4-1.28.81-2.55 1.22-3.8l-.95-.31Zm.02-64.83c-1.11.73-2.22 1.48-3.33 2.24l.57.82c1.1-.76 2.2-1.5 3.3-2.23l-.55-.84.01.01Zm-4.69 80.15c-.36 1.28-.72 2.56-1.08 3.86l.96.26c.35-1.29.71-2.58 1.07-3.85l-.96-.27h.01Zm13.55 95.7h-3.97v1h3.97v-1Zm0 76.54h-3.97v1h3.97v-1ZM189.17 453h-3.99v1h3.99v-1Zm8.56-53.65c-.5 1.22-1 2.46-1.5 3.72l.93.37c.49-1.25.99-2.48 1.5-3.7l-.92-.38-.01-.01ZM165.23 453h-3.99v1h3.99v-1Zm.21 102.53-1-.08-.33 3.99 1 .08.33-3.99Zm.72-7.97-1-.09c-.12 1.32-.25 2.65-.37 3.99l1 .09c.12-1.33.24-2.66.37-3.98v-.01Zm.38-14.62h-3.97v1h3.97v-1Zm-4.08 86.47h-1c-.01 1.32-.03 2.65-.03 3.99h1c0-1.33.02-2.66.03-3.99Zm2.35-55.91-1-.07c-.1 1.33-.2 2.66-.29 3.99l1 .07c.09-1.33.19-2.66.29-3.99Zm-1.45 23.94-1-.05-.18 4 1 .04c.06-1.33.11-2.67.18-3.99Zm.89-15.97-1-.06c-.09 1.33-.17 2.66-.25 3.99l1 .06c.08-1.33.17-2.66.25-3.99Zm-1.22 23.96-1-.04c-.05 1.33-.1 2.67-.14 4l1 .03c.04-1.33.09-2.67.14-4v.01Zm-1.37 11.97 1 .02c.03-1.33.07-2.67.1-4l-1-.03c-.04 1.33-.07 2.67-.1 4v.01Zm2.86-230.21c-.96.93-1.91 1.87-2.85 2.82l.71.71c.94-.95 1.89-1.88 2.84-2.8l-.7-.72v-.01Zm-.75 202.27-1-.05-.21 4 1 .05.21-3.99v-.01Z"/></g><g clip-path="url(#b)"><path fill="#FF614F" d="m208.27 316.23-13.94 32.94 25.77 36.77 92.14-3.72 35.96-29.1-8.65-52.24-131.28 15.35Z"/><path fill="#FF614F" d="M224.54 390.38c20.308 0 36.77-16.463 36.77-36.77 0-20.308-16.462-36.77-36.77-36.77-20.308 0-36.77 16.462-36.77 36.77 0 20.307 16.462 36.77 36.77 36.77Z"/><path fill="#FF8585" d="M65.92 569.25c9.278 0 16.8-7.522 16.8-16.8s-7.522-16.8-16.8-16.8-16.8 7.522-16.8 16.8 7.522 16.8 16.8 16.8Z"/><path fill="#FF614F" d="M110.9 421.07c17.706 0 32.06-14.354 32.06-32.06 0-17.706-14.354-32.06-32.06-32.06-17.706 0-32.06 14.354-32.06 32.06 0 17.706 14.354 32.06 32.06 32.06Z"/><path fill="#FF614F" d="M100.06 358.83c27.57-16.83 65.96-31.47 108.21-42.6l28.23 72.15-114.88 31.08-21.57-60.62.01-.01Z"/><path fill="#FF614F" d="M132.01 416.3c-26.59 20.32-25.72 87.82-26.38 144.09l-66.3-16.27c1.46-60.3 4.46-157.27 55.29-182.73l37.39 54.91Z"/><path fill="#FF8585" d="m49.12 546.62-2.14 8.97a16.369 16.369 0 0 1-15.74 7.81l-2.66-.28a31.56 31.56 0 0 0-24.19 7.68L0 574.65l62.5 13.14c8.15 1.71 16.04-3.88 17.11-12.14l3.11-20.41-33.61-8.61.01-.01Z"/><path fill="#052C47" d="M42.55 560.39c2.52 5.41 7.9 8.91 13.86 9.03l23.95.46-2.48 20.99L0 574.65l3.51-3.63A26.445 26.445 0 0 1 23.94 563l7.31.4 11.31-3.01h-.01Z"/><path fill="#353535" d="m132.01 416.3 18.14-15.53-10 13.91-8.14 1.62Z"/><path fill="#1E4D5F" d="M240.38 65.1S229.3 45.63 201.5 47.34c-27.8 1.72-27.73 35.62-11.08 47.7l49.96-29.94Z"/><path fill="#1E4D5F" d="M231.92 65.64s12.8-4.65 22.45 7.32c9.65 11.97 6.35 30.23-8.38 49.71l-14.07-57.03Z"/><path fill="#FFC929" d="m222.23 144.46-24.43 5.07-14.12 42.6 24.75 124.71 131.12-15.96L325.31 163l-22.03-22.03-81.05 3.49Z"/><path fill="#FF8585" d="m207.31 115.15 9.85 45.46c8.9 19.7 34.86 14.59 36.94-5.49l-12.51-51.15-34.28 11.18Z"/><path fill="#FF8585" d="M241.31 112.89c5.854 0 10.6-4.746 10.6-10.6 0-5.854-4.746-10.6-10.6-10.6-5.854 0-10.6 4.746-10.6 10.6 0 5.854 4.746 10.6 10.6 10.6Z"/><path fill="#052C47" d="m212.02 136.89 1.79 8.27s17.93-5.32 19.22-26.37l-21.01 18.1Z"/><path fill="#FF8585" d="M241.59 103.52c0 18.63-14.4 33.43-28.2 33.43-13.8 0-18.4-15.08-21.78-33.43-4.23-22.9 9.12-32.6 22.92-32.6 13.8 0 27.06 13.98 27.06 32.6Z"/><path stroke="#353535" stroke-linecap="round" stroke-linejoin="round" stroke-width=".87" d="M209.33 127.8c2.21 1.16 4.08.75 5.62-1.21m-13.76-26.64.85 10.16"/><path fill="#353535" d="M212.14 101.2a1.7 1.7 0 1 0 0-3.4 1.7 1.7 0 0 0 0 3.4Zm-16.04 2.79a1.7 1.7 0 1 0 0-3.4 1.7 1.7 0 0 0 0 3.4Z"/><path fill="#fff" d="M199.73 115.18c.38 4.03 5.47 10.77 11.59 9.56 7.73-1.53 8.12-10.74 5.51-14.54l-17.1 4.98Z"/><path fill="#1E4D5F" d="M202.48 73.04c1.77 6.49 14.99 20.29 31.1 21.99 0 0 17.98-6.82 18.32-12.88.35-6.06-32.21-39.8-49.43-9.11h.01Z"/><path stroke="#353535" stroke-linecap="round" stroke-linejoin="round" stroke-width=".87" d="M242.65 97.23s4.55-.12 4.55 4.7-5.08 5.5-5.08 5.5"/><path fill="#FFC929" d="m325.31 163 16.61 103.22-40.58 7.01L281.25 163h44.06Z"/><path fill="#FF8585" d="M326.48 287.05c-32.29 14-69.34 22.49-109.77 27.05l-2.19-38.64c40.52-5.98 75.96-15.72 106.88-28.79l5.08 40.37v.01ZM125.6 31.85l16.61-29.27 29.68 15.92-19.21 36.67-27.08-23.32Z"/><path fill="#FF8585" d="M156.62 49.66s10.78-2.43 17.36-13.48l5.02-9.41c1.02-1.91.26-4.29-1.69-5.25a3.84 3.84 0 0 0-5.17 1.8l-16.23 14.86.71 11.48Z"/><path fill="#052C47" d="m206.86 316.23 10.01-4.58 47.52-5.19-26.51 6.79L207.1 317l-.24-.77Z"/><path stroke="#353535" stroke-linecap="round" stroke-linejoin="round" stroke-width=".87" d="m296.55 235.15-7.48-43"/><path fill="#FFC929" d="M213.81 145.16s2.15 12.04 17.17 11.81c15.02-.23 20.35-13.16 20.35-13.16h10.59l-7.82 46.1-39.57-1.55-.72-43.21v.01Z"/><path stroke="#353535" stroke-linecap="round" stroke-linejoin="round" stroke-width=".87" d="m209.43 148.84 7.02 24.21 14.31-15.13m26.36-12.76-8.08 27.89-16.01-15.43"/><path fill="#fff" d="M232.2 175.82a3.58 3.58 0 1 0 0-7.16 3.58 3.58 0 0 0 0 7.16Zm3 14.8a3.58 3.58 0 1 0 0-7.16 3.58 3.58 0 0 0 0 7.16Z"/><path fill="#FF8585" d="M321.46 287.05c11.3 0 20.46-9.16 20.46-20.46s-9.16-20.46-20.46-20.46S301 255.29 301 266.59s9.16 20.46 20.46 20.46Z"/><path fill="#FF8585" d="m341.92 266.22-39.58 8.01-5.79-39.08 38.48-8.42 6.89 39.49Zm-251.1-117.8c-10.21-20.9 18.31-89.25 36.15-118.89l30.48 18.95c-18.05 24.46-23.92 39.73-25.7 80.16l-40.93 19.78Z"/><path fill="#FF8585" d="M142.05 57.09c9.93 0 17.98-8.05 17.98-17.98s-8.05-17.98-17.98-17.98-17.98 8.05-17.98 17.98 8.05 17.98 17.98 17.98Zm-32.38 103.46c11.438 0 20.71-9.272 20.71-20.71s-9.272-20.71-20.71-20.71-20.71 9.272-20.71 20.71 9.272 20.71 20.71 20.71Z"/><path fill="#FF8585" d="m91.17 149.13 24.51-29 31.76 16.82-18.05 38.26c-12.77-3.94-33.57-17.61-38.23-26.08h.01Z"/><path stroke="#353535" stroke-linecap="round" stroke-linejoin="round" stroke-width=".87" d="m299.38 252.41 12.84-3.33"/><path fill="#FF614F" d="M311.94 395.76c20.308 0 36.77-16.462 36.77-36.77 0-20.308-16.462-36.77-36.77-36.77-20.308 0-36.77 16.462-36.77 36.77 0 20.308 16.462 36.77 36.77 36.77Z"/><path fill="#FFC929" d="M202.68 149.13c-19.08-1.71-30.18-3.69-55.24-12.18l-18.05 38.26c34.24 13.75 37.2 14.6 54.29 16.92l19-43Z"/><path fill="#FFC929" d="M192.25 193.69c12.388 0 22.43-10.042 22.43-22.43s-10.042-22.43-22.43-22.43-22.43 10.042-22.43 22.43 10.042 22.43 22.43 22.43Z"/><path stroke="#353535" stroke-linecap="round" stroke-linejoin="round" stroke-width=".87" d="m131.76 128.64-8.09-4.28"/><path fill="#FF8585" d="M146.09 8.42a4.21 4.21 0 1 0 0-8.42 4.21 4.21 0 0 0 0 8.42Z"/><path fill="#FF8585" d="M153.66 12.23a4.21 4.21 0 1 0 0-8.42 4.21 4.21 0 0 0 0 8.42Z"/><path fill="#FF8585" d="M161.15 16.27a4.21 4.21 0 1 0 0-8.42 4.21 4.21 0 0 0 0 8.42Z"/><path fill="#FF8585" d="M168.43 20.57a4.21 4.21 0 1 0 0-8.42 4.21 4.21 0 0 0 0 8.42Z"/><path stroke="#353535" stroke-linecap="round" stroke-linejoin="round" stroke-width=".87" d="m148.72 7.82-2.85 5.43c-.9 1.7-2.98 2.38-4.71 1.53a3.545 3.545 0 0 1-1.71-4.53l2.28-5.57m14.34 6.9-2.85 5.43c-.9 1.7-2.98 2.38-4.71 1.53a3.545 3.545 0 0 1-1.71-4.53l2.28-5.57m14.39 6.73-2.85 5.43c-.9 1.7-2.98 2.38-4.71 1.53a3.545 3.545 0 0 1-1.71-4.53l2.28-5.57m13.97 7.11-2.85 5.43c-.9 1.7-2.98 2.38-4.71 1.53a3.545 3.545 0 0 1-1.71-4.53l2.28-5.57m-25.71 22.26 4.11-3.34c3.82-3.11 8.96-4.05 13.64-2.51l4.64 1.53s4.62-6.28 6.5-6.28"/><path fill="#FF614F" d="M204.21 487.67c18.855 0 34.14-15.285 34.14-34.14s-15.285-34.14-34.14-34.14-34.14 15.285-34.14 34.14 15.285 34.14 34.14 34.14Z"/><path fill="#FF614F" d="M238.35 458.41c37.2-29 45.56-43.38 88.13-65.63l-26.79-67.81c-48.87 8.46-123.01 86-128.13 118.56l66.8 14.88h-.01Z"/><path fill="#FF8585" d="M262.15 611.49c9.278 0 16.8-7.522 16.8-16.8s-7.522-16.8-16.8-16.8-16.8 7.522-16.8 16.8 7.522 16.8 16.8 16.8Z"/><path fill="#FF8585" d="m247.15 602.51 2.93 8.66a16.37 16.37 0 0 1-8.28 15.49l-2.33 1.31a31.582 31.582 0 0 0-15.24 20.3l-1.33 5.68 58.52-25.59c7.63-3.34 10.8-12.47 6.88-19.82l-9.35-19.39-31.79 13.35-.01.01Z"/><path fill="#052C47" d="M249.26 617.64a15.61 15.61 0 0 0 16.53-.69l19.77-13.53 10.17 18.53-72.83 32.01.75-4.99a26.419 26.419 0 0 1 11.98-18.39l6.18-3.92 7.46-9.02h-.01Z"/><path stroke="#353535" stroke-linecap="round" stroke-linejoin="round" stroke-width=".87" d="M268.84 338.6c-22.82 15.38-46.95 33.91-71.67 60.41m62.2-54.22-2.83-31.87"/><path fill="#353535" d="M205.51 337.47H79.67c-2.56 0-4.82-1.67-5.58-4.12L47.7 247.94c-1.16-3.76 1.65-7.57 5.58-7.57h125.84c2.56 0 4.82 1.67 5.58 4.12l26.39 85.41c1.16 3.76-1.65 7.57-5.58 7.57Z"/><path stroke="#FCECDE" stroke-linecap="round" stroke-linejoin="round" stroke-width=".87" d="M208.98 71.95s1.7 7.94 13.19 11.46m-8.55-15.19s1.7 7.94 13.19 11.46"/><path fill="#FF8585" d="M321.24 271.71c0 6.72 5.01 12.26 11.49 13.13 5.48-3.03 9.2-8.87 9.2-15.57 0-3.76-1.17-7.24-3.16-10.11-1.34-.46-2.77-.71-4.26-.71-7.33 0-13.26 5.94-13.26 13.26h-.01Z" opacity=".5" style="mix-blend-mode:multiply"/><path fill="#052C47" d="M47.73 552.45 78 554.02l-28.88-7.4-1.39 5.83ZM246.59 601l1.72 4.8 28.74-15.44L246.59 601Z"/><path stroke="#353535" stroke-linecap="round" stroke-linejoin="round" stroke-width="2" d="M208.56 92.77c1.14-1.08 4.13-2.67 8.27-1.36m-24.52 5.82c.25-1.46 1.93-3.13 6.07-1.82"/><path fill="#FF614F" d="M238.35 458.41c1.55 40.2 29.74 79.71 54.03 127.27l-58.72 19.65c-28.4-33.66-64.79-90.51-63.59-151.8l68.29 4.87-.01.01Z"/><path stroke="#353535" stroke-linecap="round" stroke-linejoin="round" stroke-width=".87" d="m286.18 194.63-29.5 4.5 1 5 29-4"/><path fill="#FF8585" d="M103.53 143.34c-2.11-7.24-7.48-11.58-14.28-13.81-1.68 15.21.46 22.99 12.8 30.61 2.26-2.89 2.33-13.89 1.48-16.81v.01Z" opacity=".5" style="mix-blend-mode:multiply"/><path stroke="#353535" stroke-linecap="round" stroke-linejoin="round" stroke-width=".87" d="m310.43 309.73 1.3 38.35c.24 6.96-2.69 13.65-7.97 18.2l-74.49 61.61m-3.18 164.92 52.87-18.22M43.09 528.16l49.78 12.71"/><path fill="#FFC929" d="M303.28 185.03c12.167 0 22.03-9.863 22.03-22.03 0-12.167-9.863-22.03-22.03-22.03-12.167 0-22.03 9.863-22.03 22.03 0 12.167 9.863 22.03 22.03 22.03Z"/><path fill="#052C47" d="m182.05 174.01 1.63 18.12-4.65-.94 3.02-17.18Z"/><path fill="#353535" d="M238.35 458.41c-2.09-8.19-3.23-17.15-1.85-22.93l6.87 18.59-5.03 4.34h.01Z"/><path fill="#FF8585" d="M217.76 312.66c10.538 0 19.08-8.542 19.08-19.08 0-10.538-8.542-19.08-19.08-19.08-10.538 0-19.08 8.542-19.08 19.08 0 10.538 8.542 19.08 19.08 19.08Z"/><path fill="#FF8585" d="m220.41 312.18-29.1 6.69-21.43-33.01 44.99-11.01 5.54 37.33Z"/><path fill="#FF8585" d="m214.88 274.89-8.5-6.03a17.37 17.37 0 0 0-10.92-1.12l-10.41 2.32c-2.12.47-3.42 2.6-2.88 4.7a3.838 3.838 0 0 0 4.73 2.75l14.21.7 13.77-3.33v.01Zm-7.43 41.31-21.22 4.81c-1.79.41-3.66-.28-4.76-1.75-2.03-2.7-.59-6.6 2.7-7.34l21.22-4.81 2.06 9.09Z"/><path fill="#FF8585" d="m199.6 308.55-21.22 4.81c-1.79.41-3.66-.28-4.76-1.75-2.03-2.7-.59-6.6 2.7-7.34l21.22-4.81 2.06 9.09Zm-7.59-8.25-21.22 4.81c-1.79.41-3.66-.28-4.76-1.75-2.03-2.7-.59-6.6 2.7-7.34l21.22-4.81 2.06 9.09Zm-2.88-9.29-21.22 4.81c-1.79.41-3.66-.28-4.76-1.75-2.03-2.7-.59-6.6 2.7-7.34l21.22-4.81 2.06 9.09Z"/><path fill="#fff" d="M108.53 253.82a2.37 2.37 0 1 0 0-4.74 2.37 2.37 0 0 0 0 4.74Z"/></g><defs><clipPath id="a"><path fill="#fff" d="M6 335h495.88v306.09H6z"/></clipPath><clipPath id="b"><path fill="#fff" d="M0 0h348.71v653.95H0z"/></clipPath></defs></svg>