<svg xmlns="http://www.w3.org/2000/svg" xmlns:xlink="http://www.w3.org/1999/xlink" width="506" height="608" fill="none"><style>.B{fill:#fff}.C{fill:#ff9c90}.D{fill:#d1875d}.E{fill:#2e3257}.F{fill:#222849}.G{fill:#ffb6ad}.H{fill:#be6e41}.I{fill:#262f36}</style><path d="m170 469.2-24.5 112 121.3-7.7 26.7-111.1-123.6 6.8z" class="E"/><path d="m284.3 500.4 9.2-38-123.6 6.8-6.8 31.2h121.2z" class="F"/><path d="M40.6 476.1a36.8 36.8 0 0 1-35-35.8L.9 218.7a36.3 36.3 0 0 1 36.4-37.4l397.9-2.7c19.5 0 35.7 15 36.8 34.5L484.8 436a36.7 36.7 0 0 1-36.4 38.7l-406 1.5a39.8 39.8 0 0 1-1.8 0zM46.8 227l4.3 203.5 387.5-1.5-11.8-204.5-380 2.5z" class="E"/><path d="m448.3 446.4-406 1.6a13.8 13.8 0 0 1-13.9-13.5l-4.7-221.7c-.1-7.6 6-14 13.7-14l398-2.6c7.3 0 13.3 5.6 13.8 13L462 431.8c.4 7.9-5.8 14.5-13.7 14.5z" class="B"/><path fill="#e8e4dd" d="m450.6 234.7-1.5-25.6c-.4-7.3-6.5-13-13.8-13l-397.9 2.7c-7.7 0-13.8 6.4-13.7 14l.5 21.9h426.4z"/><g class="B"><path d="M45.6 223.2a6.9 6.9 0 1 0 0-13.7 6.9 6.9 0 0 0 0 13.7z"/><use xlink:href="#B"/><use xlink:href="#B" x="22.1"/></g><path d="M100.7 567.5h197c7.3 0 13.3 6 13.3 13.3v27H87.3v-27c0-7.4 6-13.3 13.4-13.3z" class="E"/><path d="M195 569.4a1.9 1.9 0 0 1 0-3.9l73-.3a1.9 1.9 0 0 1 0 3.8l-72.9.4z" class="F"/><path d="M256.1 463.1a4.6 4.6 0 1 0 0-9.1 4.6 4.6 0 0 0 0 9.1z" class="B"/><path d="M381.8 230.9c6-14.6 6.2-25 5.2-31.8-.4-2.7-1.4-7.8.6-13.6a24.5 24.5 0 0 1 8.2-11.5c9.6-7.4 22.5-15.2 24.9-12.4 1.2 1.4-.2 6-12 20l41.2 18.8-16.6 48-51.5-17.5z" class="G"/><path d="M402.2 189.3a1 1 0 0 1-.7-.3 1 1 0 0 1 0-1.5l6.5-6.6a1 1 0 0 1 1.5 1.5L403 189a1 1 0 0 1-.8.3z" class="C"/><g class="E"><path d="m461.6 24 3.7-5.5-6.6-4.5-96 140 6.6 4.5 3.6-5.2a78.8 78.8 0 0 0 39.8 12.3l.4 43.4h8l-.4-43.5a82.9 82.9 0 0 0 10.5-1.4 78.5 78.5 0 0 0 50.7-34A79.2 79.2 0 0 0 461.6 24zm13.6 101.8a70.5 70.5 0 0 1-45.5 30.5 71.3 71.3 0 0 1-52.3-9.6L457 30.5a71.2 71.2 0 0 1 18.2 95.3z"/><path d="M441.4 218.5H392a3.8 3.8 0 0 1-2.4-6.9l22.7-10.7 8.5-1 22.9 11.6c3 2.2 1.4 7-2.3 7z"/></g><path d="M438.5 168.5c-7.6-4.7-21 6.2-26.5 12-2.6 2.7-7.8 8.1-6.2 11 1.3 2.4 6.8 2.5 13.6.4-4 6.4-5.3 10.4-4 11.9 2 2.2 9.4-.5 22-7.9-2.5 4.2-8.3 13.9-6.1 15.8 2.6 2.3 15-7.6 18-10 2.7-3.4 3.1-7.5 1.3-10.2a7 7 0 0 0-3.5-2.6 9 9 0 0 0-.4-9.2 8 8 0 0 0-3.5-2.7c-1-5.7-3.4-7.7-4.7-8.5z" class="G"/><path d="M419.4 193a1.1 1.1 0 0 1-.6-2l17.6-11a1.1 1.1 0 0 1 1.6.4 1.1 1.1 0 0 1-.4 1.5L420 193l-.6.2z" class="C"/><path fill="#4d95ea" d="M461.5 132a62 62 0 1 0-88-88 62 62 0 1 0 88 88z"/><path fill="#f7c143" d="M357.7 71c1.4-.9 3.2-2 6-2.4 4.6-.8 6.8 1 11.6-.8 1.9-.7 3.5-2 5.4-2.7 7.7-3.2 18.2 1.4 24-4.6 3.2-3.2 3.4-8.3 3.2-12.9-.4-7 0-14.7-1-20.8a62.2 62.2 0 0 0-49.2 44.3zm12.7 22.4a33 33 0 0 0-14.6 2.2c2 16 10 30 21.6 39.8 2-5-.1-10.7-.1-16.2 0-5.3 2-10.4 3.4-15.5.6-2.1 1-4.4.2-6.4-1.5-3.6-7.5-3.7-10.5-3.9zM427 56.5c-2.8 4.9-2.6 10.3-7.6 14.6-3 2.5-7.1 2.8-10.9 3.8s-7.8 3.7-7.7 7.6c0 4.4 5.4 6.7 9.8 7.5s9.6 1.7 11.4 5.8c2.7 6.4-6 12.7-4.8 19.5.2 1.2 1.5 3 3.8 6.5 7 10.3 10.5 15.5 13.2 15.2 3.8-.5 7-9.3 7-16.5-.1-2.7-1-3.5-2.7-18.5-.4-2.6-.4-5.4.9-7.6s4.6-3.5 6.7-2c2 1.6 1.8 4.7 2.7 7.1 2 5.5 11.4 6 14 .8.6-1.1.9-2.4 1.7-3.3 1.7-1.6 4.3-1 6.6-.8 2.5.3 5.4-.7 8.4-2.7A61.8 61.8 0 0 0 464.2 47c-17.4 2.1-32 .3-37.3 9.5z"/><path fill="#e0563e" d="M176 259.8C87 270 61 378.9 59.3 384.7c-5.9 22.1-13.4 50.4 2.4 65.6 14.1 13.6 42.6 12.6 70.5-2.6l151.4.2 1.5-57.2c23.5 2 41.6-2.4 53.5-6.7 77.8-28.4 93.7-129.1 94.7-135.7L381.8 231c-26.9 65-49.7 81-66.9 81.1-29.7.2-44.5-47.3-96.2-55.3-18.3-2.8-32.4 1.9-42.7 3z"/><path fill="#6a3445" d="M279.4 147.6c4.7-8.6 8.8-24.4 1-35.4-8.3-11.8-25.6-11.6-39-11.4a87.9 87.9 0 0 0-31 6.2c-2.9-.2-9.7-.2-17 3.6a32 32 0 0 0-11.8 10.8c-.7-2.2-6.3-18.7-20.8-22.6-10.8-2.9-20.5 2.9-25 5.6-21.2 13.1-15.6 32-38.6 60.7-11 13.6-13.2 10.6-25.7 26.7-15.8 20.3-26.1 43-20 49.3 1.3 1.5 2.4.9 11.2 5.2 4.9 2.3 7.2 3.8 8.8 4.6 10.3 5.3 18.2-3 34.5-2 14.7.8 18 8.3 28.3 5a26.8 26.8 0 0 0 13.3-10.2c6.8-9.5 5.9-20.7 5.7-24.1-.6-12.1 3-32.4 22-67.6a101.2 101.2 0 0 0-3.1 35.9c.4 6.5 1.7 13.4 6.2 18.2 6.7 7.1 18.5 6.8 27.1 2.2s14.7-12.8 20.8-20.4a55.4 55.4 0 0 1 16-14.7c4-2.2 6.3-2.6 9.7-3.8a54 54 0 0 0 27.4-21.8z"/><path fill="#562439" d="M160.5 113.2c-7.3-.9-15 3.2-18.5 9.7-1 1.7-1.6 3.6-2.6 5.3-1 1.7-2.4 3-4.2 3.8-1.6 1-3.4 1.6-5 2.5-1.6 1-3 2.2-3.9 3.7-2 3-2.4 6.6-3 10-.5 1.8-.9 3.5-1.6 5.2-.7 1.4-1.6 2.7-2.6 3.8-4.2 5-10.2 8-13.9 13.3a15 15 0 0 0-2 4.4c-.6 2.3-.6 4.6-.7 6.8 0 2.1 0 4.2-.4 6.3a23.2 23.2 0 0 1-1.7 5.4A24.2 24.2 0 0 1 89 204.9c-1.5.8-3.1 1.6-4.5 2.6a7.2 7.2 0 0 0-2.8 4.3c-.3 1.9 0 3.8-.6 5.7-.8 2.8-3 4.9-5.4 6.5-2.6 1.9-5.5 3.4-8.2 5.1a26.5 26.5 0 0 0-11.2 14.3l1.8.7a32.2 32.2 0 0 1 1.2-2.9c1.4-3.2 3.4-6 6.1-8.2 2.5-2 5.4-3.6 8.1-5.2a28 28 0 0 0 7.1-5.6c1-1 1.7-2.3 2.2-3.6.6-1.8.6-3.5.7-5.4 0-1.8.9-3.2 2.4-4.3 1.3-1 2.8-1.7 4.3-2.4a25.5 25.5 0 0 0 14.3-22.3c0-2.2-.1-4.4.2-6.6.7-6.8 6.6-10.8 11.5-14.9a29 29 0 0 0 6.3-6.9c1.8-3 2.4-6.4 3.1-9.7.7-3.3 1.5-6.9 4.3-9 2.9-2.4 6.8-3 9.4-5.6 2.7-2.8 3.5-6.8 5.8-9.8 2-2.8 5.2-4.9 8.5-6 3.5-1 7.1-1 10.5.3 3.3 1.2 6.2 3.4 8.1 6.2a16.6 16.6 0 0 1 2.3 4.5c.4 1.2 2.2.7 1.9-.5-2.3-7-8.6-12.2-15.8-13zm-19.8 44.3c-7.2 3.4-9.6 12-10.9 19.2-.7 4.3-1.3 8.8-3.1 12.9-1.6 3.6-4.3 6.5-7 9.4-2.4 2.8-5 5.7-6 9.4-.8 2.3-.8 4.7-1 7-.2 2-.6 4-1.5 5.7-3.1 6.5-9.6 11-11.7 18.2-.6 2.1-.7 4.4-1.3 6.5-.4 1.3-1 2.5-1.8 3.5a45.8 45.8 0 0 1 2.5-.3c.9-1.6 1.3-3.2 1.6-5 .4-2 .7-4 1.5-6 .7-1.6 1.7-3.1 2.8-4.6 2-3 4.6-5.6 6.5-8.7a22 22 0 0 0 2.5-4.8c.7-2 .8-4.2 1-6.4.1-2.2.4-4.3 1.3-6.2.8-1.7 1.8-3.2 3-4.6 2.4-3 5.3-5.6 7.5-8.8a32 32 0 0 0 4.3-12.2c.8-4 1.3-8.2 2.6-12.2 1.2-3.3 3-6.7 5.9-9a13 13 0 0 1 2.3-1.3c1.1-.5.2-2.2-1-1.7zM284.8 127a18.5 18.5 0 0 1-3 2.4c-4 2.4-8.6 3.3-13.2 2.3-2.7-.6-5.4-1.6-8.1-2.2a17 17 0 0 0-8.4.4c-1.3.4-2.6.8-4 1-1.4.3-2.9.4-4.3.4-2.9 0-5.7-.7-8.4-1.6-6.1-2.2-11.5-6-16.7-9.8-.4-.3-1 0-1.3.3-.3.5 0 1 .3 1.4 5 3.5 9.8 7 15.4 9.3a26.7 26.7 0 0 0 17.4 1.5c1.5-.5 3-1 4.4-1.2 1.4-.2 2.8-.2 4.2 0 2.8.5 5.6 1.5 8.4 2.2 2.5.6 5 .8 7.6.5 2.3-.4 4.6-1.2 6.7-2.3a20.5 20.5 0 0 0 3-2 37.6 37.6 0 0 0 0-2.6z"/><path d="m189.5 149.4-3 30.4c-3.2-3-7.8-3.9-11.5-2.3-4.7 2.1-6 7.5-5.7 11 .6 5.9 6.2 11 13.8 11.5l-3.9 60.2c6.8 18.4 30.4 22.1 38.2 16.4 6.6-5 5.6-17.1 5.3-19.5l2.3-24.3c3.4-1.3 8.7-3.7 13.7-8.4 7-6.6 9.6-14.3 11.5-20.6 6.6-22.4 9.3-47.6 10.3-57.5a53.3 53.3 0 0 1-16.8 0 56 56 0 0 1-29.7-15.2 48.4 48.4 0 0 1-14.5 13.7 47.6 47.6 0 0 1-10 4.6z" class="G"/><path d="M247.5 189.1c0 3.6 1.7 6.7 4.3 8.7 1.7-6.5 3.1-13 4.3-19.3-5 1-8.6 5.4-8.6 10.6z" class="C"/><path d="M230 202.3c-1.1 1.3-15.3 17.9-20.8 15.3-3.8-1.7-1.6-12.1-.6-16l21.4.7z" class="B"/><path d="M215 152a1.5 1.5 0 0 1-1-.7 1.5 1.5 0 0 1 .5-2.1c1.4-1 4.4-2.6 8.3-2.1 1.7.1 3.4.7 5 1.7.7.4 1 1.4.5 2a1.5 1.5 0 0 1-2.1.6 9 9 0 0 0-3.8-1.3c-2.9-.3-5.1.9-6.2 1.6a1.5 1.5 0 0 1-1.1.2zm46.2.4a1.5 1.5 0 0 0 1-.6 1.5 1.5 0 0 0-.4-2.1c-1.4-1-4.4-2.6-8.3-2.1a12 12 0 0 0-5 1.7 1.5 1.5 0 0 0-.5 2 1.5 1.5 0 0 0 2 .6 9 9 0 0 1 3.8-1.3c3-.3 5.2.9 6.3 1.6a1.5 1.5 0 0 0 1.1.3z" class="F"/><path d="M210 185.7a9.5 9.5 0 0 0-7.8-11 9.5 9.5 0 0 0-11 7.7 9.5 9.5 0 0 0 7.8 11 9.5 9.5 0 0 0 11-7.7z" class="C"/><path fill="#f9867d" d="M240.1 189.6h-.4l-8.9-3.2a1.1 1.1 0 0 1-.7-1.5 1.1 1.1 0 0 1 1.5-.7l7.2 2.6a114.1 114.1 0 0 1-.5-18.8 114.4 114.4 0 0 1 2.4-17 1.1 1.1 0 0 1 2.2.5 112.5 112.5 0 0 0-2.3 16.6 111.5 111.5 0 0 0 .6 20.3 1.1 1.1 0 0 1-1 1.2z"/><path d="M216.7 235c-1.6 0-3.2-.1-4.8-.4a32.8 32.8 0 0 1-12.7-4.7 1.1 1.1 0 0 1-.3-1.6 1.1 1.1 0 0 1 1.5-.3 30.5 30.5 0 0 0 11.8 4.4c4.1.6 8.5.4 12.5-.8.6-.1 1.2.2 1.4.8a1.1 1.1 0 0 1-.8 1.5 32.8 32.8 0 0 1-8.6 1.1zm-31.4-46.8a1.1 1.1 0 0 1-1-.7 5.4 5.4 0 0 0-4.4-3.1c-2-.2-4 .8-5 2.5a1.1 1.1 0 0 1-1.6.4 1.1 1.1 0 0 1-.4-1.6 7.6 7.6 0 0 1 7.2-3.6 7.7 7.7 0 0 1 6.3 4.5 1.1 1.1 0 0 1-.6 1.5 1.2 1.2 0 0 1-.5.1z" class="C"/><path d="M273 155.6a75.7 75.7 0 0 0-17.7-.8 76.4 76.4 0 0 0-12.5 1.9l-.5.1a10.5 10.5 0 0 0-4-.6 10.6 10.6 0 0 0-4.9 1.5c-5.6-3-12-4.8-18.3-5.2a43.6 43.6 0 0 0-15.3 2h-.4l-10-2-.4 3 9.7 2c-.6 18.4 5.7 30.6 16.5 32a11 11 0 0 0 1.3 0c2.6 0 5.2-1 7.5-2.8 5.5-4.5 9.3-14 10.5-26.2a7.7 7.7 0 0 1 3.9-1.3 7.7 7.7 0 0 1 3.3.6c.7 18.8 6.2 31 14 31.2h.2c11.1 0 15-11.9 18.2-33.7l.2-1.5-1.4-.2zm-51 28.8a8.5 8.5 0 0 1-6.5 2.1c-9.2-1-14.6-12.6-14-29.5a40.7 40.7 0 0 1 13.3-1.5c5.8.3 11.5 1.8 16.7 4.5-1 11.3-4.6 20.4-9.5 24.4zm33.6 3.6c-6.6 0-10.5-14.3-11-28.7a72.8 72.8 0 0 1 26.3-1c-3.4 22.3-7.3 29.9-15.3 29.7z" class="B"/><path d="m232.1 378.9-37-46.7c32.9-18.6 58.5-32 76.2-40.9 4.3-2.2 22.3-11.2 24.4-8.2 1 1.5-3 7-11.2 17.8l-6.7 8.6c.4.1 2.8.8 4 3.2 1 2 .8 4.6-.7 6.6.6.4 3 2 3.5 5a7 7 0 0 1 0 2.8c.9.7 2.6 2 3.6 4.5a11 11 0 0 1-.2 8c-1.2 3.5-3.6 5.4-8.2 9-3.7 3-8.4 6.7-10.4 5.4-.8-.6-.9-2-.8-3L232 378.9z" class="G"/><path d="M280.8 314.4a1.1 1.1 0 0 1-.9-.5 6.3 6.3 0 0 0-.9-1c-1.6-1.7-4.3-2.4-13.5-1.6l-9 1.2a1.1 1.1 0 0 1-1.3-1 1.1 1.1 0 0 1 .9-1.2 130.2 130.2 0 0 1 9.2-1.2c10-1 13.2 0 15.3 2.1a8.6 8.6 0 0 1 1.2 1.5 1.1 1.1 0 0 1-.3 1.5 1.1 1.1 0 0 1-.7.2zm-21.8 7.9a1.1 1.1 0 0 1-1.1-1 1.1 1.1 0 0 1 1-1.2 88.4 88.4 0 0 1 11.5-1.1 87 87 0 0 1 11 .4c.6 0 1 .6 1 1.2a1.1 1.1 0 0 1-1.3 1 84.4 84.4 0 0 0-10.7-.4 85.6 85.6 0 0 0-11.2 1h-.2zm5.2 9.9a1.1 1.1 0 0 1-1-.8 1.1 1.1 0 0 1 .7-1.4 64.7 64.7 0 0 1 10.8-2.3 66.7 66.7 0 0 1 10-.5 1.1 1.1 0 0 1 1.1 1.2 1.1 1.1 0 0 1-1.1 1 61.4 61.4 0 0 0-9.7.5 62.3 62.3 0 0 0-10.4 2.2 1.2 1.2 0 0 1-.4 0zm4.5 21.2a1.1 1.1 0 0 1-.7-2l12.4-9.8a1.1 1.1 0 0 1 1.4 1.8l-12.4 9.8a1.1 1.1 0 0 1-.7.2z" class="C"/><path fill="#bc3134" d="m284.6 377-1.7 69c0 2.6 3 2.7 3 0l1.7-68.8c0-2.7-3-2.8-3-.1zm-51.7-117c-.3 4-1 8-2 12-1 3.1-2.2 6.2-4.2 8.9a16 16 0 0 1-8 5.7 34.5 34.5 0 0 1-10.9 1.4 46.3 46.3 0 0 1-10.9-1.3c-6.8-1.7-13.2-5-18-10.2a32 32 0 0 1-8.5-15.9l-2.2.4a34 34 0 0 0 7.1 15 38.6 38.6 0 0 0 18.3 12.2c7.3 2.3 15.5 2.9 23 1.4 3.8-.8 7.3-2.4 10-5.1 2.6-2.5 4.3-5.7 5.5-9 1.3-3.6 2.1-7.4 2.6-11.3a78 78 0 0 0 .4-3.4 72 72 0 0 0-2.2-.8zM98.6 387l37.8-20.9 37.8-20.8 21.4-11.8c1.4-.8.1-3-1.3-2.2L156.5 352l-37.8 21-21.4 11.8c-1.4.8-.1 3 1.3 2.2z"/><g class="F"><use xlink:href="#C"/><use xlink:href="#C" x="27.8"/></g><path fill="#e8e4dd" d="m440.2 430.8-125 .5a4.2 4.2 0 0 1-4.2-4.1l-1.4-68.2a4.2 4.2 0 0 1 4.2-4.3l122.4-.8a4.2 4.2 0 0 1 4.2 4l4 68.5a4.2 4.2 0 0 1-4.2 4.4z"/><g clip-path="url(#A)"><path d="M364.6 394.7c2.5-2.7 10.8 16.8 10.8 16.8s-2 21.2-10.7 29.6-37.3-.2-46-6.2c-11.7-8 27.3-1.7 32.6-8 4.7-5.7 6.1-24.3 13.3-32.2z" class="D"/><g fill="#ffc929"><path d="M394.7 381.2c17.5-.4 19.2 23 26.4 47.8 2.5 8.6 2 26.7 2 26.7l-52.4-9.2s.4-17.4-4-38c-4.2-20.1 4.8-26.7 28-27.3z"/><path d="M382.9 381.6s-19.9 3.4-27.3 26.2c0 0 8.3 9.4 18.5 8.3 7.1-.8 8.8-34.5 8.8-34.5z"/></g><path d="M402.4 394.5c1-3.8 18.9 8.6 18.9 8.6s24.7 34.6 6.5 44.5c-12.3 6.6-43.4-10.4-43.4-10.4l5.1-8.7c11 5.3 26-.4 26-.4s-16.7-20.4-13.1-33.6z" class="D"/><path fill="#fc9171" d="M412.9 428.8c5.8-1.5 12.2-1.5 17 2.4.2 0 0 .3 0 .2-5-3.8-11.2-3.8-17-2.3-.1 0-.2-.3 0-.3z"/><path fill="#ffc929" d="M396.7 381s16.1 1.3 27 14.7c6.8 8.6 6.8 17.3 6.8 17.3s-9.3 9.6-20.4 10.6l-14.5-21.8 1.1-20.8z"/><path d="M430 413.2a26.5 26.5 0 0 1-17.4 10c-.9.2-2.3.8-3.1.3-1-.5-1.7-2.2-2.2-3l-3-4.7c-.2-.2.2-.4.4-.1l2.3 3.5c.7 1 2 4 3.7 4 1.3 0 3-.6 4.1-.9a29.3 29.3 0 0 0 3.5-1c4.6-1.8 8.4-4.7 11.2-8.4.2-.2.6 0 .4.3z" class="H"/><g class="I"><path d="M363.5 338.7c2.3-2.4 5-4.4 8.1-5.3s6.5-.8 9.2.7c-1-1-.2-3 1-3.6s2.9-.4 4.2.1c3.1 1.2 5.9 4 6.1 7.4l-9 12.5s-7.4-4.8-16.3-1.1-6.5-3.7-6.5-3.7c0-2.6 1.5-5 3.2-7z"/><path d="M406.8 347.4c5.5 18.4-9.1 29.5-19.5 28.6-6.6-.5 0-39.8 2-41 0 0 13.6-.7 17.5 12.4z"/></g><path d="M391.2 390c-7.3 2.2-7-1.8-6.8-3.9v-.3c0-.8 0-1.8-.2-2.8l-.4-3.3v-.2l-.5-2.5-.4-2.2-.3-1.3 5.2-5.3.6-.6 2.9-3s1.4 6 5.9 16.7c1.1 2.7 1.6 6.5-6 8.7z" class="D"/><path d="M383.3 378v-.3l-.1-.5c-.5-2.7 4-2.8 5-4.4l.6-.9c0 .1.7-.7.8-.6a14.2 14.2 0 0 1 .1 2v.3c0 5.7-3.3 10.8-5.3 12l-.2-2.8c-.1-.8-.6-3.4-1-4.8z" class="H"/><path d="M391 362.3s.7 8.8-3.3 15.8a22.4 22.4 0 0 1-13.6 8.2c-9.1 1.6-13.1-5.5-14-15.7-.3-4.4.2-8.4.3-14.1.2-11.5 28.4-28 30.5 5.8z" class="D"/><path d="m390.8 372-.9 2.6a27.8 27.8 0 0 1-4 7l-.2-.2a27.6 27.6 0 0 0 4-7.2l.8-2.2c0-.2.3-.2.3 0zm-19.3.4c.3 0 .2.4 0 .4-.5 0-1.2.1-1.6-.3-.5-.4-.2-1.4-.1-2 .3-2.1 1.4-5.2.2-7.3 0-.2.2-.4.3-.2.8 1.3.6 3 .4 4.5l-.6 3.1c0 .6-.3 1.5.4 1.8h1z" class="H"/><g class="I"><path d="M377.3 358.4c1.5.2 2.6 1.4 2.5 2.2s-1.5.8-3 .5-2.8-.6-2.7-1.4 1.6-1.6 3.2-1.3zm-11.6-1.7c1.7 0 3 .8 3 1.6s-1.3 1.1-3 1.2-3 0-3-.8 1.3-1.8 3-2z"/><path d="M363.7 338.4c.6-.6 1.9 2.5 5.5 2.9l7.2-3v.9A17.6 17.6 0 0 1 397 351c.7 2 1 4.4.5 6.6s-1.8 4.3-3.8 5.3-3.8-.2-5.8-1c-2.3-.9-8.7-10.2-7.9-12.2-2 2.2-6.5 5.5-10 6.3-17.8 4.1-14.9-8.2-6.4-17.6zm30.8-7.9c2.2.8.2 2.8-2.7 4.6 0 0 .5-5.3 2.7-4.6z"/></g><path d="M390.4 360.8c3.2-1.6 6.4-.9 7.2 1.8s-1.1 6-4.3 7.8-6.3.9-7.1-1.8 1-6 4.2-7.8z" class="D"/><path d="M388 370.8c1.8.5 3.8 0 5.7-.7 2-.9 3.2-2.6 4-4.8.1-.3.5-.2.4 0-.8 2-1.9 4-3.7 5-2 1-4.5 1.4-6.5 1-.2-.1 0-.5.1-.5zm1.9-4.7c0-.2-.2-.4-.1-.7 0-.6.7-1 1-1.4.3-.1.5.2.3.4-.5.3-1 .8-.9 1.4l.2.6c0 .6-.1 1.1-.4 1.6-.2.2-.5 0-.4-.2a2 2 0 0 0 .3-1.7zm.8-5.7c.3 0 .4.4.1.4a4 4 0 0 0-1.5.9c-.2.2-.5-.1-.3-.3.5-.5 1-.8 1.7-1z" class="H"/><path d="M377 364c.8 0 1.4.9 1.5 2s-.6 2.2-1.4 2.3-1.4-.8-1.5-2 .6-2.2 1.4-2.2zm-11 0c.8 0 1.5.8 1.6 2s-.6 2.1-1.4 2.2-1.5-.8-1.5-2 .6-2.1 1.3-2.2zm2.3 11.4c2.7.1 5.5-.6 8-1.8.6-.2 1.2.3 1 1-.3.7-.7 1.7-1.1 2.3a6.1 6.1 0 0 1-3.7 2.4c-1.5.3-2.6 0-3.5-.8a6.5 6.5 0 0 1-1.4-2c-.2-.5.2-1.2.7-1.1z" class="I"/><path d="M369.9 375.4c2.2-.1 4.3-.8 6.4-1.7a.6.6 0 0 1 .8.1c-1 .8-2.3 1.8-3.9 2.5-2 1-4.2.3-5.7-.4.1-.3.4-.5.6-.5h1.8z" class="B"/><path fill="#e55a4d" d="M376.3 376.8a6.2 6.2 0 0 1-3.7 2.4c-1.5.4-2.7 0-3.5-.7.8-1.8 3.3-1.4 3.3-1.4 1.6-.7 3.1-.5 4-.3z"/><path fill="#403672" d="m374.2 437.2 1.4.7 14.3-28.7-1.4-.7-14.3 28.7z"/><path d="M389.5 438.7c-4.6-2.3-9.4-3-11.3-4-3.7-1.9-2.7-3.4-2.3-3.9.3-.3 1.2-.4 1-.6-3-2 0-2.8 0-2.8-2.2-1.3-1.6-3 .4-3 0 0-2.2-6 5.5-.3l-.2-.9c-.9-1.4-2-4.3-1-5 .5-.3 6.8 7 8.1 8.8a6.6 6.6 0 0 1 1.1 2c.3.8-.6 10-1.3 9.7z" class="D"/><path d="m390 409 .5-1c.2-.3 0-.7-.3-1h-.4a.5.5 0 0 0-.6.1l-.7 1.2 1.4.7z" class="B"/></g><defs><path id="B" d="M68.5 223.2a6.9 6.9 0 1 0 0-13.7 6.9 6.9 0 0 0 0 13.7z"/><path id="C" d="M223.8 169.7c1.4 0 2.6-2 2.6-4.4s-1.2-4.3-2.6-4.3-2.6 2-2.6 4.3 1.2 4.4 2.6 4.4z"/><clipPath id="A"><path d="M295.7 322.3h141.5v108.6H295.7z" class="B"/></clipPath></defs></svg>